<mxfile host="app.diagrams.net" agent="Mozilla/5.0 (Windows NT 10.0; Win64; x64) AppleWebKit/537.36 (KHTML, like Gecko) Chrome/135.0.0.0 Safari/537.36 Edg/135.0.0.0" version="26.2.12">
  <diagram name="database" id="8KJXqYNF0iQIstZEmgC_">
    <mxGraphModel dx="1275" dy="1723" grid="1" gridSize="10" guides="1" tooltips="1" connect="1" arrows="1" fold="1" page="1" pageScale="1" pageWidth="827" pageHeight="1169" math="0" shadow="0">
      <root>
        <mxCell id="HOemkFVx_ZeqiPZnyjtU-0" />
        <mxCell id="HOemkFVx_ZeqiPZnyjtU-1" parent="HOemkFVx_ZeqiPZnyjtU-0" />
        <mxCell id="HOemkFVx_ZeqiPZnyjtU-2" style="edgeStyle=orthogonalEdgeStyle;rounded=0;orthogonalLoop=1;jettySize=auto;html=1;fontFamily=Helvetica;fontSize=12;fontColor=default;fontStyle=0;swimlaneLine=0;" parent="HOemkFVx_ZeqiPZnyjtU-1" source="HOemkFVx_ZeqiPZnyjtU-11" target="HOemkFVx_ZeqiPZnyjtU-125" edge="1">
          <mxGeometry relative="1" as="geometry">
            <Array as="points">
              <mxPoint x="1270" y="400" />
            </Array>
          </mxGeometry>
        </mxCell>
        <mxCell id="HOemkFVx_ZeqiPZnyjtU-3" value="0..*" style="edgeLabel;html=1;align=center;verticalAlign=middle;resizable=0;points=[];" parent="HOemkFVx_ZeqiPZnyjtU-2" vertex="1" connectable="0">
          <mxGeometry x="0.905" y="-1" relative="1" as="geometry">
            <mxPoint x="-15" y="-19" as="offset" />
          </mxGeometry>
        </mxCell>
        <mxCell id="HOemkFVx_ZeqiPZnyjtU-4" value="1" style="edgeLabel;html=1;align=center;verticalAlign=middle;resizable=0;points=[];" parent="HOemkFVx_ZeqiPZnyjtU-2" vertex="1" connectable="0">
          <mxGeometry x="-0.9397" relative="1" as="geometry">
            <mxPoint x="-14" y="-12" as="offset" />
          </mxGeometry>
        </mxCell>
        <mxCell id="HOemkFVx_ZeqiPZnyjtU-5" style="edgeStyle=orthogonalEdgeStyle;rounded=0;orthogonalLoop=1;jettySize=auto;html=1;fontFamily=Helvetica;fontSize=12;fontColor=default;fontStyle=0;swimlaneLine=0;" parent="HOemkFVx_ZeqiPZnyjtU-1" source="HOemkFVx_ZeqiPZnyjtU-11" target="HOemkFVx_ZeqiPZnyjtU-175" edge="1">
          <mxGeometry relative="1" as="geometry">
            <Array as="points">
              <mxPoint x="1280" y="310" />
              <mxPoint x="1400" y="310" />
              <mxPoint x="1400" y="516" />
            </Array>
          </mxGeometry>
        </mxCell>
        <mxCell id="HOemkFVx_ZeqiPZnyjtU-6" value="1" style="edgeLabel;html=1;align=center;verticalAlign=middle;resizable=0;points=[];" parent="HOemkFVx_ZeqiPZnyjtU-5" vertex="1" connectable="0">
          <mxGeometry x="-0.9055" y="-2" relative="1" as="geometry">
            <mxPoint x="22" y="-9" as="offset" />
          </mxGeometry>
        </mxCell>
        <mxCell id="HOemkFVx_ZeqiPZnyjtU-7" value="0..*" style="edgeLabel;html=1;align=center;verticalAlign=middle;resizable=0;points=[];" parent="HOemkFVx_ZeqiPZnyjtU-5" vertex="1" connectable="0">
          <mxGeometry x="0.8689" y="-1" relative="1" as="geometry">
            <mxPoint y="-15" as="offset" />
          </mxGeometry>
        </mxCell>
        <mxCell id="HOemkFVx_ZeqiPZnyjtU-8" style="edgeStyle=orthogonalEdgeStyle;rounded=0;orthogonalLoop=1;jettySize=auto;html=1;" parent="HOemkFVx_ZeqiPZnyjtU-1" source="HOemkFVx_ZeqiPZnyjtU-221" target="HOemkFVx_ZeqiPZnyjtU-44" edge="1">
          <mxGeometry relative="1" as="geometry">
            <Array as="points">
              <mxPoint x="1120" />
              <mxPoint x="1120" y="305" />
            </Array>
          </mxGeometry>
        </mxCell>
        <mxCell id="HOemkFVx_ZeqiPZnyjtU-9" value="0..1" style="edgeLabel;html=1;align=center;verticalAlign=middle;resizable=0;points=[];" parent="HOemkFVx_ZeqiPZnyjtU-8" vertex="1" connectable="0">
          <mxGeometry x="-0.8667" y="1" relative="1" as="geometry">
            <mxPoint x="-5" y="-13" as="offset" />
          </mxGeometry>
        </mxCell>
        <mxCell id="HOemkFVx_ZeqiPZnyjtU-10" value="0..*" style="edgeLabel;html=1;align=center;verticalAlign=middle;resizable=0;points=[];" parent="HOemkFVx_ZeqiPZnyjtU-8" vertex="1" connectable="0">
          <mxGeometry x="0.8528" y="1" relative="1" as="geometry">
            <mxPoint y="14" as="offset" />
          </mxGeometry>
        </mxCell>
        <mxCell id="HOemkFVx_ZeqiPZnyjtU-11" value="Users" style="swimlane;fontStyle=0;childLayout=stackLayout;horizontal=1;startSize=30;horizontalStack=0;resizeParent=1;resizeParentMax=0;resizeLast=0;collapsible=1;marginBottom=0;whiteSpace=wrap;html=1;fillColor=#dae8fc;strokeColor=#6c8ebf;fontSize=16;swimlaneLine=0;" parent="HOemkFVx_ZeqiPZnyjtU-1" vertex="1">
          <mxGeometry x="1183" y="50" width="180" height="150" as="geometry" />
        </mxCell>
        <mxCell id="HOemkFVx_ZeqiPZnyjtU-12" value="user_ID (P key)" style="text;strokeColor=#666666;fillColor=#f5f5f5;align=left;verticalAlign=middle;spacingLeft=4;spacingRight=4;overflow=hidden;points=[[0,0.5],[1,0.5]];portConstraint=eastwest;rotatable=0;whiteSpace=wrap;html=1;fontStyle=1;horizontal=1;fontColor=#333333;swimlaneLine=0;" parent="HOemkFVx_ZeqiPZnyjtU-11" vertex="1">
          <mxGeometry y="30" width="180" height="30" as="geometry" />
        </mxCell>
        <mxCell id="HOemkFVx_ZeqiPZnyjtU-13" value="name" style="text;strokeColor=#666666;fillColor=#f5f5f5;align=left;verticalAlign=middle;spacingLeft=4;spacingRight=4;overflow=hidden;points=[[0,0.5],[1,0.5]];portConstraint=eastwest;rotatable=0;whiteSpace=wrap;html=1;fontColor=#333333;swimlaneLine=0;" parent="HOemkFVx_ZeqiPZnyjtU-11" vertex="1">
          <mxGeometry y="60" width="180" height="30" as="geometry" />
        </mxCell>
        <mxCell id="HOemkFVx_ZeqiPZnyjtU-14" value="avatar" style="text;strokeColor=#666666;fillColor=#f5f5f5;align=left;verticalAlign=middle;spacingLeft=4;spacingRight=4;overflow=hidden;points=[[0,0.5],[1,0.5]];portConstraint=eastwest;rotatable=0;whiteSpace=wrap;html=1;fontColor=#333333;swimlaneLine=0;" parent="HOemkFVx_ZeqiPZnyjtU-11" vertex="1">
          <mxGeometry y="90" width="180" height="30" as="geometry" />
        </mxCell>
        <mxCell id="HOemkFVx_ZeqiPZnyjtU-15" value="&lt;span&gt;account_ID (F key)&lt;/span&gt;" style="text;strokeColor=#666666;fillColor=#f5f5f5;align=left;verticalAlign=middle;spacingLeft=4;spacingRight=4;overflow=hidden;points=[[0,0.5],[1,0.5]];portConstraint=eastwest;rotatable=0;whiteSpace=wrap;html=1;fontColor=#333333;swimlaneLine=0;fontStyle=6" parent="HOemkFVx_ZeqiPZnyjtU-11" vertex="1">
          <mxGeometry y="120" width="180" height="30" as="geometry" />
        </mxCell>
        <mxCell id="HOemkFVx_ZeqiPZnyjtU-16" style="edgeStyle=orthogonalEdgeStyle;rounded=0;orthogonalLoop=1;jettySize=auto;html=1;fontFamily=Helvetica;fontSize=12;fontColor=default;fontStyle=0;swimlaneLine=0;" parent="HOemkFVx_ZeqiPZnyjtU-1" source="HOemkFVx_ZeqiPZnyjtU-25" target="HOemkFVx_ZeqiPZnyjtU-171" edge="1">
          <mxGeometry relative="1" as="geometry">
            <Array as="points">
              <mxPoint x="1790" y="-110" />
              <mxPoint x="2200" y="-110" />
              <mxPoint x="2200" y="1081" />
            </Array>
            <mxPoint x="1860" y="80" as="sourcePoint" />
            <mxPoint x="1210" y="1081.47" as="targetPoint" />
          </mxGeometry>
        </mxCell>
        <mxCell id="HOemkFVx_ZeqiPZnyjtU-17" value="0..*" style="edgeLabel;html=1;align=center;verticalAlign=middle;resizable=0;points=[];" parent="HOemkFVx_ZeqiPZnyjtU-16" vertex="1" connectable="0">
          <mxGeometry x="0.9716" y="2" relative="1" as="geometry">
            <mxPoint x="-10" y="8" as="offset" />
          </mxGeometry>
        </mxCell>
        <mxCell id="HOemkFVx_ZeqiPZnyjtU-18" value="1" style="edgeLabel;html=1;align=center;verticalAlign=middle;resizable=0;points=[];" parent="HOemkFVx_ZeqiPZnyjtU-16" vertex="1" connectable="0">
          <mxGeometry x="-0.9853" y="-1" relative="1" as="geometry">
            <mxPoint x="10" y="8" as="offset" />
          </mxGeometry>
        </mxCell>
        <mxCell id="HOemkFVx_ZeqiPZnyjtU-19" style="edgeStyle=orthogonalEdgeStyle;rounded=0;orthogonalLoop=1;jettySize=auto;html=1;fontFamily=Helvetica;fontSize=12;fontColor=default;fontStyle=0;swimlaneLine=0;entryX=1;entryY=0.5;entryDx=0;entryDy=0;" parent="HOemkFVx_ZeqiPZnyjtU-1" source="HOemkFVx_ZeqiPZnyjtU-25" target="HOemkFVx_ZeqiPZnyjtU-107" edge="1">
          <mxGeometry relative="1" as="geometry">
            <Array as="points">
              <mxPoint x="1785" y="794" />
            </Array>
            <mxPoint x="1785.0226315789475" y="312" as="sourcePoint" />
            <mxPoint x="1694.97" y="756" as="targetPoint" />
          </mxGeometry>
        </mxCell>
        <mxCell id="HOemkFVx_ZeqiPZnyjtU-20" value="1" style="edgeLabel;html=1;align=center;verticalAlign=middle;resizable=0;points=[];" parent="HOemkFVx_ZeqiPZnyjtU-19" vertex="1" connectable="0">
          <mxGeometry x="-0.9617" relative="1" as="geometry">
            <mxPoint x="-13" y="6" as="offset" />
          </mxGeometry>
        </mxCell>
        <mxCell id="HOemkFVx_ZeqiPZnyjtU-21" value="0..*" style="edgeLabel;html=1;align=center;verticalAlign=middle;resizable=0;points=[];" parent="HOemkFVx_ZeqiPZnyjtU-19" vertex="1" connectable="0">
          <mxGeometry x="0.9272" relative="1" as="geometry">
            <mxPoint y="-16" as="offset" />
          </mxGeometry>
        </mxCell>
        <mxCell id="HOemkFVx_ZeqiPZnyjtU-22" style="edgeStyle=orthogonalEdgeStyle;rounded=0;orthogonalLoop=1;jettySize=auto;html=1;fontFamily=Helvetica;fontSize=12;fontColor=default;fontStyle=0;swimlaneLine=0;" parent="HOemkFVx_ZeqiPZnyjtU-1" source="HOemkFVx_ZeqiPZnyjtU-25" target="HOemkFVx_ZeqiPZnyjtU-142" edge="1">
          <mxGeometry relative="1" as="geometry">
            <Array as="points">
              <mxPoint x="1910" y="170" />
              <mxPoint x="1910" y="453" />
            </Array>
          </mxGeometry>
        </mxCell>
        <mxCell id="HOemkFVx_ZeqiPZnyjtU-23" value="1" style="edgeLabel;html=1;align=center;verticalAlign=middle;resizable=0;points=[];" parent="HOemkFVx_ZeqiPZnyjtU-22" vertex="1" connectable="0">
          <mxGeometry x="-0.9092" y="2" relative="1" as="geometry">
            <mxPoint y="-8" as="offset" />
          </mxGeometry>
        </mxCell>
        <mxCell id="HOemkFVx_ZeqiPZnyjtU-24" value="0..*" style="edgeLabel;html=1;align=center;verticalAlign=middle;resizable=0;points=[];" parent="HOemkFVx_ZeqiPZnyjtU-22" vertex="1" connectable="0">
          <mxGeometry x="0.9161" y="2" relative="1" as="geometry">
            <mxPoint x="-4" y="-15" as="offset" />
          </mxGeometry>
        </mxCell>
        <mxCell id="HOemkFVx_ZeqiPZnyjtU-25" value="Sellers" style="swimlane;fontStyle=0;childLayout=stackLayout;horizontal=1;startSize=30;horizontalStack=0;resizeParent=1;resizeParentMax=0;resizeLast=0;collapsible=1;marginBottom=0;whiteSpace=wrap;html=1;fillColor=#dae8fc;strokeColor=#6c8ebf;fontSize=16;swimlaneLine=0;" parent="HOemkFVx_ZeqiPZnyjtU-1" vertex="1">
          <mxGeometry x="1714.5" y="-50" width="140" height="240" as="geometry" />
        </mxCell>
        <mxCell id="HOemkFVx_ZeqiPZnyjtU-26" value="seller_ID (P key)" style="text;strokeColor=#666666;fillColor=#f5f5f5;align=left;verticalAlign=middle;spacingLeft=4;spacingRight=4;overflow=hidden;points=[[0,0.5],[1,0.5]];portConstraint=eastwest;rotatable=0;whiteSpace=wrap;html=1;fontStyle=1;horizontal=1;fontColor=#333333;swimlaneLine=0;" parent="HOemkFVx_ZeqiPZnyjtU-25" vertex="1">
          <mxGeometry y="30" width="140" height="30" as="geometry" />
        </mxCell>
        <mxCell id="HOemkFVx_ZeqiPZnyjtU-27" value="store_name" style="text;strokeColor=#666666;fillColor=#f5f5f5;align=left;verticalAlign=middle;spacingLeft=4;spacingRight=4;overflow=hidden;points=[[0,0.5],[1,0.5]];portConstraint=eastwest;rotatable=0;whiteSpace=wrap;html=1;fontColor=#333333;swimlaneLine=0;" parent="HOemkFVx_ZeqiPZnyjtU-25" vertex="1">
          <mxGeometry y="60" width="140" height="30" as="geometry" />
        </mxCell>
        <mxCell id="HOemkFVx_ZeqiPZnyjtU-28" value="owner_name" style="text;strokeColor=#666666;fillColor=#f5f5f5;align=left;verticalAlign=middle;spacingLeft=4;spacingRight=4;overflow=hidden;points=[[0,0.5],[1,0.5]];portConstraint=eastwest;rotatable=0;whiteSpace=wrap;html=1;fontColor=#333333;swimlaneLine=0;" parent="HOemkFVx_ZeqiPZnyjtU-25" vertex="1">
          <mxGeometry y="90" width="140" height="30" as="geometry" />
        </mxCell>
        <mxCell id="HOemkFVx_ZeqiPZnyjtU-29" value="description" style="text;strokeColor=#666666;fillColor=#f5f5f5;align=left;verticalAlign=middle;spacingLeft=4;spacingRight=4;overflow=hidden;points=[[0,0.5],[1,0.5]];portConstraint=eastwest;rotatable=0;whiteSpace=wrap;html=1;fontColor=#333333;swimlaneLine=0;" parent="HOemkFVx_ZeqiPZnyjtU-25" vertex="1">
          <mxGeometry y="120" width="140" height="30" as="geometry" />
        </mxCell>
        <mxCell id="HOemkFVx_ZeqiPZnyjtU-30" value="logo" style="text;strokeColor=#666666;fillColor=#f5f5f5;align=left;verticalAlign=middle;spacingLeft=4;spacingRight=4;overflow=hidden;points=[[0,0.5],[1,0.5]];portConstraint=eastwest;rotatable=0;whiteSpace=wrap;html=1;fontColor=#333333;swimlaneLine=0;" parent="HOemkFVx_ZeqiPZnyjtU-25" vertex="1">
          <mxGeometry y="150" width="140" height="30" as="geometry" />
        </mxCell>
        <mxCell id="HOemkFVx_ZeqiPZnyjtU-31" value="background" style="text;strokeColor=#666666;fillColor=#f5f5f5;align=left;verticalAlign=middle;spacingLeft=4;spacingRight=4;overflow=hidden;points=[[0,0.5],[1,0.5]];portConstraint=eastwest;rotatable=0;whiteSpace=wrap;html=1;fontColor=#333333;swimlaneLine=0;" parent="HOemkFVx_ZeqiPZnyjtU-25" vertex="1">
          <mxGeometry y="180" width="140" height="30" as="geometry" />
        </mxCell>
        <mxCell id="HOemkFVx_ZeqiPZnyjtU-32" value="account_ID (F key)" style="text;strokeColor=#666666;fillColor=#f5f5f5;align=left;verticalAlign=middle;spacingLeft=4;spacingRight=4;overflow=hidden;points=[[0,0.5],[1,0.5]];portConstraint=eastwest;rotatable=0;whiteSpace=wrap;html=1;fontColor=#333333;fontStyle=6;swimlaneLine=0;" parent="HOemkFVx_ZeqiPZnyjtU-25" vertex="1">
          <mxGeometry y="210" width="140" height="30" as="geometry" />
        </mxCell>
        <mxCell id="HOemkFVx_ZeqiPZnyjtU-33" style="edgeStyle=orthogonalEdgeStyle;rounded=0;orthogonalLoop=1;jettySize=auto;html=1;" parent="HOemkFVx_ZeqiPZnyjtU-1" source="HOemkFVx_ZeqiPZnyjtU-39" target="HOemkFVx_ZeqiPZnyjtU-104" edge="1">
          <mxGeometry relative="1" as="geometry">
            <Array as="points">
              <mxPoint x="980" y="340" />
              <mxPoint x="1450" y="340" />
              <mxPoint x="1450" y="710" />
            </Array>
          </mxGeometry>
        </mxCell>
        <mxCell id="HOemkFVx_ZeqiPZnyjtU-34" value="0..*" style="edgeLabel;html=1;align=center;verticalAlign=middle;resizable=0;points=[];" parent="HOemkFVx_ZeqiPZnyjtU-33" vertex="1" connectable="0">
          <mxGeometry x="0.9458" relative="1" as="geometry">
            <mxPoint y="-10" as="offset" />
          </mxGeometry>
        </mxCell>
        <mxCell id="HOemkFVx_ZeqiPZnyjtU-35" value="1" style="edgeLabel;html=1;align=center;verticalAlign=middle;resizable=0;points=[];" parent="HOemkFVx_ZeqiPZnyjtU-33" vertex="1" connectable="0">
          <mxGeometry x="-0.9755" y="-1" relative="1" as="geometry">
            <mxPoint x="13" as="offset" />
          </mxGeometry>
        </mxCell>
        <mxCell id="HOemkFVx_ZeqiPZnyjtU-36" style="edgeStyle=orthogonalEdgeStyle;rounded=0;orthogonalLoop=1;jettySize=auto;html=1;" parent="HOemkFVx_ZeqiPZnyjtU-1" source="HOemkFVx_ZeqiPZnyjtU-39" target="HOemkFVx_ZeqiPZnyjtU-105" edge="1">
          <mxGeometry relative="1" as="geometry">
            <Array as="points">
              <mxPoint x="970" y="350" />
              <mxPoint x="1440" y="350" />
              <mxPoint x="1440" y="735" />
            </Array>
          </mxGeometry>
        </mxCell>
        <mxCell id="HOemkFVx_ZeqiPZnyjtU-37" value="0..*" style="edgeLabel;html=1;align=center;verticalAlign=middle;resizable=0;points=[];" parent="HOemkFVx_ZeqiPZnyjtU-36" vertex="1" connectable="0">
          <mxGeometry x="0.9681" relative="1" as="geometry">
            <mxPoint x="-10" y="-12" as="offset" />
          </mxGeometry>
        </mxCell>
        <mxCell id="HOemkFVx_ZeqiPZnyjtU-38" value="1" style="edgeLabel;html=1;align=center;verticalAlign=middle;resizable=0;points=[];" parent="HOemkFVx_ZeqiPZnyjtU-36" vertex="1" connectable="0">
          <mxGeometry x="-0.9756" y="-1" relative="1" as="geometry">
            <mxPoint x="-9" as="offset" />
          </mxGeometry>
        </mxCell>
        <mxCell id="HOemkFVx_ZeqiPZnyjtU-39" value="Addresses" style="swimlane;fontStyle=0;childLayout=stackLayout;horizontal=1;startSize=30;horizontalStack=0;resizeParent=1;resizeParentMax=0;resizeLast=0;collapsible=1;marginBottom=0;whiteSpace=wrap;html=1;fillColor=#dae8fc;strokeColor=#6c8ebf;fontSize=16;swimlaneLine=0;" parent="HOemkFVx_ZeqiPZnyjtU-1" vertex="1">
          <mxGeometry x="900" y="-10" width="140" height="330" as="geometry" />
        </mxCell>
        <mxCell id="HOemkFVx_ZeqiPZnyjtU-40" value="address_ID (P key)" style="text;strokeColor=#666666;fillColor=#f5f5f5;align=left;verticalAlign=middle;spacingLeft=4;spacingRight=4;overflow=hidden;points=[[0,0.5],[1,0.5]];portConstraint=eastwest;rotatable=0;whiteSpace=wrap;html=1;fontStyle=1;horizontal=1;fontColor=#333333;swimlaneLine=0;" parent="HOemkFVx_ZeqiPZnyjtU-39" vertex="1">
          <mxGeometry y="30" width="140" height="30" as="geometry" />
        </mxCell>
        <mxCell id="HOemkFVx_ZeqiPZnyjtU-41" value="address_line" style="text;strokeColor=#666666;fillColor=#f5f5f5;align=left;verticalAlign=middle;spacingLeft=4;spacingRight=4;overflow=hidden;points=[[0,0.5],[1,0.5]];portConstraint=eastwest;rotatable=0;whiteSpace=wrap;html=1;fontColor=#333333;swimlaneLine=0;" parent="HOemkFVx_ZeqiPZnyjtU-39" vertex="1">
          <mxGeometry y="60" width="140" height="30" as="geometry" />
        </mxCell>
        <mxCell id="HOemkFVx_ZeqiPZnyjtU-42" value="default" style="text;strokeColor=#666666;fillColor=#f5f5f5;align=left;verticalAlign=middle;spacingLeft=4;spacingRight=4;overflow=hidden;points=[[0,0.5],[1,0.5]];portConstraint=eastwest;rotatable=0;whiteSpace=wrap;html=1;fontColor=#333333;swimlaneLine=0;" parent="HOemkFVx_ZeqiPZnyjtU-39" vertex="1">
          <mxGeometry y="90" width="140" height="30" as="geometry" />
        </mxCell>
        <mxCell id="z1mKPCpYzbw2HojQKFsz-1" value="&lt;span style=&quot;font-style: normal;&quot;&gt;province_id&lt;/span&gt;" style="text;strokeColor=#666666;fillColor=#f5f5f5;align=left;verticalAlign=middle;spacingLeft=4;spacingRight=4;overflow=hidden;points=[[0,0.5],[1,0.5]];portConstraint=eastwest;rotatable=0;whiteSpace=wrap;html=1;fontColor=#333333;fontStyle=2;swimlaneLine=0;" parent="HOemkFVx_ZeqiPZnyjtU-39" vertex="1">
          <mxGeometry y="120" width="140" height="30" as="geometry" />
        </mxCell>
        <mxCell id="z1mKPCpYzbw2HojQKFsz-6" value="&lt;span style=&quot;font-style: normal;&quot;&gt;province_name&lt;/span&gt;" style="text;strokeColor=#666666;fillColor=#f5f5f5;align=left;verticalAlign=middle;spacingLeft=4;spacingRight=4;overflow=hidden;points=[[0,0.5],[1,0.5]];portConstraint=eastwest;rotatable=0;whiteSpace=wrap;html=1;fontColor=#333333;fontStyle=2;swimlaneLine=0;" parent="HOemkFVx_ZeqiPZnyjtU-39" vertex="1">
          <mxGeometry y="150" width="140" height="30" as="geometry" />
        </mxCell>
        <mxCell id="z1mKPCpYzbw2HojQKFsz-0" value="&lt;span style=&quot;font-style: normal;&quot;&gt;district_id&lt;/span&gt;" style="text;strokeColor=#666666;fillColor=#f5f5f5;align=left;verticalAlign=middle;spacingLeft=4;spacingRight=4;overflow=hidden;points=[[0,0.5],[1,0.5]];portConstraint=eastwest;rotatable=0;whiteSpace=wrap;html=1;fontColor=#333333;fontStyle=2;swimlaneLine=0;" parent="HOemkFVx_ZeqiPZnyjtU-39" vertex="1">
          <mxGeometry y="180" width="140" height="30" as="geometry" />
        </mxCell>
        <mxCell id="z1mKPCpYzbw2HojQKFsz-7" value="&lt;span style=&quot;font-style: normal;&quot;&gt;district_name&lt;/span&gt;" style="text;strokeColor=#666666;fillColor=#f5f5f5;align=left;verticalAlign=middle;spacingLeft=4;spacingRight=4;overflow=hidden;points=[[0,0.5],[1,0.5]];portConstraint=eastwest;rotatable=0;whiteSpace=wrap;html=1;fontColor=#333333;fontStyle=2;swimlaneLine=0;" parent="HOemkFVx_ZeqiPZnyjtU-39" vertex="1">
          <mxGeometry y="210" width="140" height="30" as="geometry" />
        </mxCell>
        <mxCell id="z1mKPCpYzbw2HojQKFsz-11" value="&lt;span style=&quot;font-style: normal;&quot;&gt;ward_code&lt;/span&gt;" style="text;strokeColor=#666666;fillColor=#f5f5f5;align=left;verticalAlign=middle;spacingLeft=4;spacingRight=4;overflow=hidden;points=[[0,0.5],[1,0.5]];portConstraint=eastwest;rotatable=0;whiteSpace=wrap;html=1;fontColor=#333333;fontStyle=2;swimlaneLine=0;" parent="HOemkFVx_ZeqiPZnyjtU-39" vertex="1">
          <mxGeometry y="240" width="140" height="30" as="geometry" />
        </mxCell>
        <mxCell id="HOemkFVx_ZeqiPZnyjtU-43" value="&lt;span style=&quot;font-style: normal;&quot;&gt;ward_name&lt;/span&gt;" style="text;strokeColor=#666666;fillColor=#f5f5f5;align=left;verticalAlign=middle;spacingLeft=4;spacingRight=4;overflow=hidden;points=[[0,0.5],[1,0.5]];portConstraint=eastwest;rotatable=0;whiteSpace=wrap;html=1;fontColor=#333333;fontStyle=2;swimlaneLine=0;" parent="HOemkFVx_ZeqiPZnyjtU-39" vertex="1">
          <mxGeometry y="270" width="140" height="30" as="geometry" />
        </mxCell>
        <mxCell id="HOemkFVx_ZeqiPZnyjtU-44" value="accoiunt_ID (F key)" style="text;strokeColor=#666666;fillColor=#f5f5f5;align=left;verticalAlign=middle;spacingLeft=4;spacingRight=4;overflow=hidden;points=[[0,0.5],[1,0.5]];portConstraint=eastwest;rotatable=0;whiteSpace=wrap;html=1;fontColor=#333333;fontStyle=6;swimlaneLine=0;" parent="HOemkFVx_ZeqiPZnyjtU-39" vertex="1">
          <mxGeometry y="300" width="140" height="30" as="geometry" />
        </mxCell>
        <mxCell id="HOemkFVx_ZeqiPZnyjtU-51" style="edgeStyle=orthogonalEdgeStyle;rounded=0;orthogonalLoop=1;jettySize=auto;html=1;fontFamily=Helvetica;fontSize=12;fontColor=default;fontStyle=0;swimlaneLine=0;" parent="HOemkFVx_ZeqiPZnyjtU-1" source="HOemkFVx_ZeqiPZnyjtU-54" target="HOemkFVx_ZeqiPZnyjtU-170" edge="1">
          <mxGeometry relative="1" as="geometry" />
        </mxCell>
        <mxCell id="HOemkFVx_ZeqiPZnyjtU-52" value="0..1" style="edgeLabel;html=1;align=center;verticalAlign=middle;resizable=0;points=[];" parent="HOemkFVx_ZeqiPZnyjtU-51" vertex="1" connectable="0">
          <mxGeometry x="-0.8913" y="1" relative="1" as="geometry">
            <mxPoint x="-21" as="offset" />
          </mxGeometry>
        </mxCell>
        <mxCell id="HOemkFVx_ZeqiPZnyjtU-53" value="0..*" style="edgeLabel;html=1;align=center;verticalAlign=middle;resizable=0;points=[];" parent="HOemkFVx_ZeqiPZnyjtU-51" vertex="1" connectable="0">
          <mxGeometry x="0.759" y="1" relative="1" as="geometry">
            <mxPoint x="-8" y="-17" as="offset" />
          </mxGeometry>
        </mxCell>
        <mxCell id="HOemkFVx_ZeqiPZnyjtU-54" value="Categories" style="swimlane;fontStyle=0;childLayout=stackLayout;horizontal=1;startSize=30;horizontalStack=0;resizeParent=1;resizeParentMax=0;resizeLast=0;collapsible=1;marginBottom=0;whiteSpace=wrap;html=1;fillColor=#dae8fc;strokeColor=#6c8ebf;fontSize=16;swimlaneLine=0;" parent="HOemkFVx_ZeqiPZnyjtU-1" vertex="1">
          <mxGeometry x="1304" y="921" width="140" height="90" as="geometry" />
        </mxCell>
        <mxCell id="HOemkFVx_ZeqiPZnyjtU-55" value="category_ID (P key)" style="text;strokeColor=#666666;fillColor=#f5f5f5;align=left;verticalAlign=middle;spacingLeft=4;spacingRight=4;overflow=hidden;points=[[0,0.5],[1,0.5]];portConstraint=eastwest;rotatable=0;whiteSpace=wrap;html=1;fontStyle=1;horizontal=1;fontColor=#333333;swimlaneLine=0;" parent="HOemkFVx_ZeqiPZnyjtU-54" vertex="1">
          <mxGeometry y="30" width="140" height="30" as="geometry" />
        </mxCell>
        <mxCell id="HOemkFVx_ZeqiPZnyjtU-56" value="name" style="text;strokeColor=#666666;fillColor=#f5f5f5;align=left;verticalAlign=middle;spacingLeft=4;spacingRight=4;overflow=hidden;points=[[0,0.5],[1,0.5]];portConstraint=eastwest;rotatable=0;whiteSpace=wrap;html=1;fontColor=#333333;swimlaneLine=0;" parent="HOemkFVx_ZeqiPZnyjtU-54" vertex="1">
          <mxGeometry y="60" width="140" height="30" as="geometry" />
        </mxCell>
        <mxCell id="HOemkFVx_ZeqiPZnyjtU-57" style="edgeStyle=orthogonalEdgeStyle;rounded=0;orthogonalLoop=1;jettySize=auto;html=1;fontFamily=Helvetica;fontSize=12;fontColor=default;fontStyle=0;swimlaneLine=0;" parent="HOemkFVx_ZeqiPZnyjtU-1" source="HOemkFVx_ZeqiPZnyjtU-69" target="HOemkFVx_ZeqiPZnyjtU-118" edge="1">
          <mxGeometry relative="1" as="geometry">
            <Array as="points">
              <mxPoint x="1190" y="620" />
              <mxPoint x="1190" y="871" />
              <mxPoint x="1563" y="871" />
              <mxPoint x="1563" y="1041" />
            </Array>
          </mxGeometry>
        </mxCell>
        <mxCell id="HOemkFVx_ZeqiPZnyjtU-58" value="0..*" style="edgeLabel;html=1;align=center;verticalAlign=middle;resizable=0;points=[];" parent="HOemkFVx_ZeqiPZnyjtU-57" vertex="1" connectable="0">
          <mxGeometry x="0.9661" y="2" relative="1" as="geometry">
            <mxPoint x="-3" y="18" as="offset" />
          </mxGeometry>
        </mxCell>
        <mxCell id="HOemkFVx_ZeqiPZnyjtU-59" value="1" style="edgeLabel;html=1;align=center;verticalAlign=middle;resizable=0;points=[];" parent="HOemkFVx_ZeqiPZnyjtU-57" vertex="1" connectable="0">
          <mxGeometry x="-0.9413" relative="1" as="geometry">
            <mxPoint x="-16" y="-16" as="offset" />
          </mxGeometry>
        </mxCell>
        <mxCell id="HOemkFVx_ZeqiPZnyjtU-60" style="edgeStyle=orthogonalEdgeStyle;rounded=0;orthogonalLoop=1;jettySize=auto;html=1;fontFamily=Helvetica;fontSize=12;fontColor=default;fontStyle=0;swimlaneLine=0;" parent="HOemkFVx_ZeqiPZnyjtU-1" source="HOemkFVx_ZeqiPZnyjtU-69" target="HOemkFVx_ZeqiPZnyjtU-126" edge="1">
          <mxGeometry relative="1" as="geometry" />
        </mxCell>
        <mxCell id="HOemkFVx_ZeqiPZnyjtU-61" value="0..*" style="edgeLabel;html=1;align=center;verticalAlign=middle;resizable=0;points=[];" parent="HOemkFVx_ZeqiPZnyjtU-60" vertex="1" connectable="0">
          <mxGeometry x="0.8944" y="-2" relative="1" as="geometry">
            <mxPoint y="-12" as="offset" />
          </mxGeometry>
        </mxCell>
        <mxCell id="HOemkFVx_ZeqiPZnyjtU-62" value="1" style="edgeLabel;html=1;align=center;verticalAlign=middle;resizable=0;points=[];" parent="HOemkFVx_ZeqiPZnyjtU-60" vertex="1" connectable="0">
          <mxGeometry x="-0.9133" relative="1" as="geometry">
            <mxPoint x="16" y="-8" as="offset" />
          </mxGeometry>
        </mxCell>
        <mxCell id="HOemkFVx_ZeqiPZnyjtU-63" style="edgeStyle=orthogonalEdgeStyle;rounded=0;orthogonalLoop=1;jettySize=auto;html=1;fontFamily=Helvetica;fontSize=12;fontColor=default;fontStyle=0;swimlaneLine=0;" parent="HOemkFVx_ZeqiPZnyjtU-1" source="HOemkFVx_ZeqiPZnyjtU-69" target="HOemkFVx_ZeqiPZnyjtU-176" edge="1">
          <mxGeometry relative="1" as="geometry">
            <Array as="points">
              <mxPoint x="1153" y="546" />
              <mxPoint x="1153" y="546" />
            </Array>
          </mxGeometry>
        </mxCell>
        <mxCell id="HOemkFVx_ZeqiPZnyjtU-64" value="0..*" style="edgeLabel;html=1;align=center;verticalAlign=middle;resizable=0;points=[];" parent="HOemkFVx_ZeqiPZnyjtU-63" vertex="1" connectable="0">
          <mxGeometry x="0.5939" y="2" relative="1" as="geometry">
            <mxPoint x="-2" y="-13" as="offset" />
          </mxGeometry>
        </mxCell>
        <mxCell id="HOemkFVx_ZeqiPZnyjtU-65" value="1" style="edgeLabel;html=1;align=center;verticalAlign=middle;resizable=0;points=[];" parent="HOemkFVx_ZeqiPZnyjtU-63" vertex="1" connectable="0">
          <mxGeometry x="-0.7503" relative="1" as="geometry">
            <mxPoint y="-15" as="offset" />
          </mxGeometry>
        </mxCell>
        <mxCell id="HOemkFVx_ZeqiPZnyjtU-66" style="edgeStyle=orthogonalEdgeStyle;rounded=0;orthogonalLoop=1;jettySize=auto;html=1;" parent="HOemkFVx_ZeqiPZnyjtU-1" source="HOemkFVx_ZeqiPZnyjtU-69" target="HOemkFVx_ZeqiPZnyjtU-203" edge="1">
          <mxGeometry relative="1" as="geometry">
            <Array as="points">
              <mxPoint x="855" y="590" />
              <mxPoint x="855" y="645" />
            </Array>
          </mxGeometry>
        </mxCell>
        <mxCell id="HOemkFVx_ZeqiPZnyjtU-67" value="1" style="edgeLabel;html=1;align=center;verticalAlign=middle;resizable=0;points=[];" parent="HOemkFVx_ZeqiPZnyjtU-66" vertex="1" connectable="0">
          <mxGeometry x="-0.8797" y="-4" relative="1" as="geometry">
            <mxPoint x="-12" y="-11" as="offset" />
          </mxGeometry>
        </mxCell>
        <mxCell id="HOemkFVx_ZeqiPZnyjtU-68" value="0..2" style="edgeLabel;html=1;align=center;verticalAlign=middle;resizable=0;points=[];" parent="HOemkFVx_ZeqiPZnyjtU-66" vertex="1" connectable="0">
          <mxGeometry x="0.7829" y="-2" relative="1" as="geometry">
            <mxPoint y="-13" as="offset" />
          </mxGeometry>
        </mxCell>
        <mxCell id="HOemkFVx_ZeqiPZnyjtU-69" value="Product_Variants" style="swimlane;fontStyle=0;childLayout=stackLayout;horizontal=1;startSize=30;horizontalStack=0;resizeParent=1;resizeParentMax=0;resizeLast=0;collapsible=1;marginBottom=0;whiteSpace=wrap;html=1;fillColor=#dae8fc;strokeColor=#6c8ebf;fontSize=16;swimlaneLine=0;" parent="HOemkFVx_ZeqiPZnyjtU-1" vertex="1">
          <mxGeometry x="924.5" y="459" width="200" height="210" as="geometry" />
        </mxCell>
        <mxCell id="HOemkFVx_ZeqiPZnyjtU-70" value="product_variant_ID (P key)" style="text;strokeColor=#666666;fillColor=#f5f5f5;align=left;verticalAlign=middle;spacingLeft=4;spacingRight=4;overflow=hidden;points=[[0,0.5],[1,0.5]];portConstraint=eastwest;rotatable=0;whiteSpace=wrap;html=1;fontStyle=1;horizontal=1;fontColor=#333333;swimlaneLine=0;" parent="HOemkFVx_ZeqiPZnyjtU-69" vertex="1">
          <mxGeometry y="30" width="200" height="30" as="geometry" />
        </mxCell>
        <mxCell id="HOemkFVx_ZeqiPZnyjtU-71" value="price" style="text;strokeColor=#666666;fillColor=#f5f5f5;align=left;verticalAlign=middle;spacingLeft=4;spacingRight=4;overflow=hidden;points=[[0,0.5],[1,0.5]];portConstraint=eastwest;rotatable=0;whiteSpace=wrap;html=1;fontColor=#333333;swimlaneLine=0;" parent="HOemkFVx_ZeqiPZnyjtU-69" vertex="1">
          <mxGeometry y="60" width="200" height="30" as="geometry" />
        </mxCell>
        <mxCell id="HOemkFVx_ZeqiPZnyjtU-72" value="promotional_price" style="text;strokeColor=#666666;fillColor=#f5f5f5;align=left;verticalAlign=middle;spacingLeft=4;spacingRight=4;overflow=hidden;points=[[0,0.5],[1,0.5]];portConstraint=eastwest;rotatable=0;whiteSpace=wrap;html=1;fontColor=#333333;swimlaneLine=0;" parent="HOemkFVx_ZeqiPZnyjtU-69" vertex="1">
          <mxGeometry y="90" width="200" height="30" as="geometry" />
        </mxCell>
        <mxCell id="HOemkFVx_ZeqiPZnyjtU-73" value="quantity" style="text;strokeColor=#666666;fillColor=#f5f5f5;align=left;verticalAlign=middle;spacingLeft=4;spacingRight=4;overflow=hidden;points=[[0,0.5],[1,0.5]];portConstraint=eastwest;rotatable=0;whiteSpace=wrap;html=1;fontColor=#333333;swimlaneLine=0;" parent="HOemkFVx_ZeqiPZnyjtU-69" vertex="1">
          <mxGeometry y="120" width="200" height="30" as="geometry" />
        </mxCell>
        <mxCell id="HOemkFVx_ZeqiPZnyjtU-74" value="sold_quantity" style="text;strokeColor=#666666;fillColor=#f5f5f5;align=left;verticalAlign=middle;spacingLeft=4;spacingRight=4;overflow=hidden;points=[[0,0.5],[1,0.5]];portConstraint=eastwest;rotatable=0;whiteSpace=wrap;html=1;fontColor=#333333;swimlaneLine=0;" parent="HOemkFVx_ZeqiPZnyjtU-69" vertex="1">
          <mxGeometry y="150" width="200" height="30" as="geometry" />
        </mxCell>
        <mxCell id="HOemkFVx_ZeqiPZnyjtU-75" value="&lt;span style=&quot;&quot;&gt;product_ID&amp;nbsp;&lt;/span&gt;(F key)" style="text;strokeColor=#666666;fillColor=#f5f5f5;align=left;verticalAlign=middle;spacingLeft=4;spacingRight=4;overflow=hidden;points=[[0,0.5],[1,0.5]];portConstraint=eastwest;rotatable=0;whiteSpace=wrap;html=1;fontColor=#333333;fontStyle=6;swimlaneLine=0;" parent="HOemkFVx_ZeqiPZnyjtU-69" vertex="1">
          <mxGeometry y="180" width="200" height="30" as="geometry" />
        </mxCell>
        <mxCell id="HOemkFVx_ZeqiPZnyjtU-76" value="Product_Images" style="swimlane;fontStyle=0;childLayout=stackLayout;horizontal=1;startSize=30;horizontalStack=0;resizeParent=1;resizeParentMax=0;resizeLast=0;collapsible=1;marginBottom=0;whiteSpace=wrap;html=1;fillColor=#dae8fc;strokeColor=#6c8ebf;fontSize=16;swimlaneLine=0;" parent="HOemkFVx_ZeqiPZnyjtU-1" vertex="1">
          <mxGeometry x="646" y="971" width="180" height="150" as="geometry" />
        </mxCell>
        <mxCell id="HOemkFVx_ZeqiPZnyjtU-77" value="product_image_ID (P key)" style="text;strokeColor=#666666;fillColor=#f5f5f5;align=left;verticalAlign=middle;spacingLeft=4;spacingRight=4;overflow=hidden;points=[[0,0.5],[1,0.5]];portConstraint=eastwest;rotatable=0;whiteSpace=wrap;html=1;fontStyle=1;horizontal=1;fontColor=#333333;swimlaneLine=0;" parent="HOemkFVx_ZeqiPZnyjtU-76" vertex="1">
          <mxGeometry y="30" width="180" height="30" as="geometry" />
        </mxCell>
        <mxCell id="HOemkFVx_ZeqiPZnyjtU-78" value="image_path" style="text;strokeColor=#666666;fillColor=#f5f5f5;align=left;verticalAlign=middle;spacingLeft=4;spacingRight=4;overflow=hidden;points=[[0,0.5],[1,0.5]];portConstraint=eastwest;rotatable=0;whiteSpace=wrap;html=1;fontColor=#333333;swimlaneLine=0;" parent="HOemkFVx_ZeqiPZnyjtU-76" vertex="1">
          <mxGeometry y="60" width="180" height="30" as="geometry" />
        </mxCell>
        <mxCell id="HOemkFVx_ZeqiPZnyjtU-79" value="default" style="text;strokeColor=#666666;fillColor=#f5f5f5;align=left;verticalAlign=middle;spacingLeft=4;spacingRight=4;overflow=hidden;points=[[0,0.5],[1,0.5]];portConstraint=eastwest;rotatable=0;whiteSpace=wrap;html=1;fontColor=#333333;swimlaneLine=0;" parent="HOemkFVx_ZeqiPZnyjtU-76" vertex="1">
          <mxGeometry y="90" width="180" height="30" as="geometry" />
        </mxCell>
        <mxCell id="HOemkFVx_ZeqiPZnyjtU-80" value="product_ID&amp;nbsp;(F key)" style="text;strokeColor=#666666;fillColor=#f5f5f5;align=left;verticalAlign=middle;spacingLeft=4;spacingRight=4;overflow=hidden;points=[[0,0.5],[1,0.5]];portConstraint=eastwest;rotatable=0;whiteSpace=wrap;html=1;fontColor=#333333;fontStyle=6;swimlaneLine=0;" parent="HOemkFVx_ZeqiPZnyjtU-76" vertex="1">
          <mxGeometry y="120" width="180" height="30" as="geometry" />
        </mxCell>
        <mxCell id="HOemkFVx_ZeqiPZnyjtU-81" value="Product_Details" style="swimlane;fontStyle=0;childLayout=stackLayout;horizontal=1;startSize=30;horizontalStack=0;resizeParent=1;resizeParentMax=0;resizeLast=0;collapsible=1;marginBottom=0;whiteSpace=wrap;html=1;fillColor=#dae8fc;strokeColor=#6c8ebf;fontSize=16;swimlaneLine=0;" parent="HOemkFVx_ZeqiPZnyjtU-1" vertex="1">
          <mxGeometry x="358" y="911" width="180" height="150" as="geometry" />
        </mxCell>
        <mxCell id="HOemkFVx_ZeqiPZnyjtU-82" value="product_detail_ID (P key)" style="text;strokeColor=#666666;fillColor=#f5f5f5;align=left;verticalAlign=middle;spacingLeft=4;spacingRight=4;overflow=hidden;points=[[0,0.5],[1,0.5]];portConstraint=eastwest;rotatable=0;whiteSpace=wrap;html=1;fontStyle=1;horizontal=1;fontColor=#333333;swimlaneLine=0;" parent="HOemkFVx_ZeqiPZnyjtU-81" vertex="1">
          <mxGeometry y="30" width="180" height="30" as="geometry" />
        </mxCell>
        <mxCell id="HOemkFVx_ZeqiPZnyjtU-83" value="name" style="text;strokeColor=#666666;fillColor=#f5f5f5;align=left;verticalAlign=middle;spacingLeft=4;spacingRight=4;overflow=hidden;points=[[0,0.5],[1,0.5]];portConstraint=eastwest;rotatable=0;whiteSpace=wrap;html=1;fontColor=#333333;swimlaneLine=0;" parent="HOemkFVx_ZeqiPZnyjtU-81" vertex="1">
          <mxGeometry y="60" width="180" height="30" as="geometry" />
        </mxCell>
        <mxCell id="HOemkFVx_ZeqiPZnyjtU-84" value="description" style="text;strokeColor=#666666;fillColor=#f5f5f5;align=left;verticalAlign=middle;spacingLeft=4;spacingRight=4;overflow=hidden;points=[[0,0.5],[1,0.5]];portConstraint=eastwest;rotatable=0;whiteSpace=wrap;html=1;fontColor=#333333;swimlaneLine=0;" parent="HOemkFVx_ZeqiPZnyjtU-81" vertex="1">
          <mxGeometry y="90" width="180" height="30" as="geometry" />
        </mxCell>
        <mxCell id="HOemkFVx_ZeqiPZnyjtU-85" value="product_ID&amp;nbsp;(F key)" style="text;strokeColor=#666666;fillColor=#f5f5f5;align=left;verticalAlign=middle;spacingLeft=4;spacingRight=4;overflow=hidden;points=[[0,0.5],[1,0.5]];portConstraint=eastwest;rotatable=0;whiteSpace=wrap;html=1;fontColor=#333333;fontStyle=6;swimlaneLine=0;" parent="HOemkFVx_ZeqiPZnyjtU-81" vertex="1">
          <mxGeometry y="120" width="180" height="30" as="geometry" />
        </mxCell>
        <mxCell id="HOemkFVx_ZeqiPZnyjtU-86" style="edgeStyle=orthogonalEdgeStyle;rounded=0;orthogonalLoop=1;jettySize=auto;html=1;fontFamily=Helvetica;fontSize=12;fontColor=default;fontStyle=0;swimlaneLine=0;" parent="HOemkFVx_ZeqiPZnyjtU-1" source="HOemkFVx_ZeqiPZnyjtU-93" target="HOemkFVx_ZeqiPZnyjtU-117" edge="1">
          <mxGeometry relative="1" as="geometry">
            <Array as="points">
              <mxPoint x="1603" y="1011" />
            </Array>
          </mxGeometry>
        </mxCell>
        <mxCell id="HOemkFVx_ZeqiPZnyjtU-87" value="1" style="edgeLabel;html=1;align=center;verticalAlign=middle;resizable=0;points=[];" parent="HOemkFVx_ZeqiPZnyjtU-86" vertex="1" connectable="0">
          <mxGeometry x="-0.83" y="1" relative="1" as="geometry">
            <mxPoint x="8" y="-8" as="offset" />
          </mxGeometry>
        </mxCell>
        <mxCell id="HOemkFVx_ZeqiPZnyjtU-88" value="1..*" style="edgeLabel;html=1;align=center;verticalAlign=middle;resizable=0;points=[];" parent="HOemkFVx_ZeqiPZnyjtU-86" vertex="1" connectable="0">
          <mxGeometry x="0.8706" y="-1" relative="1" as="geometry">
            <mxPoint x="-4" y="-16" as="offset" />
          </mxGeometry>
        </mxCell>
        <mxCell id="HOemkFVx_ZeqiPZnyjtU-92" style="edgeStyle=orthogonalEdgeStyle;rounded=0;orthogonalLoop=1;jettySize=auto;html=1;" parent="HOemkFVx_ZeqiPZnyjtU-1" source="HOemkFVx_ZeqiPZnyjtU-93" target="HOemkFVx_ZeqiPZnyjtU-261" edge="1">
          <mxGeometry relative="1" as="geometry" />
        </mxCell>
        <mxCell id="HOemkFVx_ZeqiPZnyjtU-93" value="Orders" style="swimlane;fontStyle=0;childLayout=stackLayout;horizontal=1;startSize=30;horizontalStack=0;resizeParent=1;resizeParentMax=0;resizeLast=0;collapsible=1;marginBottom=0;whiteSpace=wrap;html=1;fillColor=#dae8fc;strokeColor=#6c8ebf;fontSize=16;swimlaneLine=0;" parent="HOemkFVx_ZeqiPZnyjtU-1" vertex="1">
          <mxGeometry x="1490" y="210" width="200" height="630" as="geometry" />
        </mxCell>
        <mxCell id="HOemkFVx_ZeqiPZnyjtU-94" value="order_ID (P key)" style="text;strokeColor=#666666;fillColor=#f5f5f5;align=left;verticalAlign=middle;spacingLeft=4;spacingRight=4;overflow=hidden;points=[[0,0.5],[1,0.5]];portConstraint=eastwest;rotatable=0;whiteSpace=wrap;html=1;fontStyle=1;horizontal=1;fontColor=#333333;swimlaneLine=0;" parent="HOemkFVx_ZeqiPZnyjtU-93" vertex="1">
          <mxGeometry y="30" width="200" height="30" as="geometry" />
        </mxCell>
        <mxCell id="HOemkFVx_ZeqiPZnyjtU-95" value="subtotal_price" style="text;strokeColor=#666666;fillColor=#f5f5f5;align=left;verticalAlign=middle;spacingLeft=4;spacingRight=4;overflow=hidden;points=[[0,0.5],[1,0.5]];portConstraint=eastwest;rotatable=0;whiteSpace=wrap;html=1;fontColor=#333333;swimlaneLine=0;" parent="HOemkFVx_ZeqiPZnyjtU-93" vertex="1">
          <mxGeometry y="60" width="200" height="30" as="geometry" />
        </mxCell>
        <mxCell id="HOemkFVx_ZeqiPZnyjtU-108" value="shipping_fee" style="text;strokeColor=#666666;fillColor=#f5f5f5;align=left;verticalAlign=middle;spacingLeft=4;spacingRight=4;overflow=hidden;points=[[0,0.5],[1,0.5]];portConstraint=eastwest;rotatable=0;whiteSpace=wrap;html=1;fontColor=#333333;fontStyle=0;swimlaneLine=0;gradientColor=none;" parent="HOemkFVx_ZeqiPZnyjtU-93" vertex="1">
          <mxGeometry y="90" width="200" height="30" as="geometry" />
        </mxCell>
        <mxCell id="HOemkFVx_ZeqiPZnyjtU-96" value="discount" style="text;strokeColor=#666666;fillColor=#f5f5f5;align=left;verticalAlign=middle;spacingLeft=4;spacingRight=4;overflow=hidden;points=[[0,0.5],[1,0.5]];portConstraint=eastwest;rotatable=0;whiteSpace=wrap;html=1;fontColor=#333333;swimlaneLine=0;" parent="HOemkFVx_ZeqiPZnyjtU-93" vertex="1">
          <mxGeometry y="120" width="200" height="30" as="geometry" />
        </mxCell>
        <mxCell id="HOemkFVx_ZeqiPZnyjtU-97" value="final_price" style="text;strokeColor=#666666;fillColor=#f5f5f5;align=left;verticalAlign=middle;spacingLeft=4;spacingRight=4;overflow=hidden;points=[[0,0.5],[1,0.5]];portConstraint=eastwest;rotatable=0;whiteSpace=wrap;html=1;fontColor=#333333;swimlaneLine=0;" parent="HOemkFVx_ZeqiPZnyjtU-93" vertex="1">
          <mxGeometry y="150" width="200" height="30" as="geometry" />
        </mxCell>
        <mxCell id="HOemkFVx_ZeqiPZnyjtU-98" value="revenue" style="text;strokeColor=#666666;fillColor=#f5f5f5;align=left;verticalAlign=middle;spacingLeft=4;spacingRight=4;overflow=hidden;points=[[0,0.5],[1,0.5]];portConstraint=eastwest;rotatable=0;whiteSpace=wrap;html=1;fontColor=#333333;swimlaneLine=0;" parent="HOemkFVx_ZeqiPZnyjtU-93" vertex="1">
          <mxGeometry y="180" width="200" height="30" as="geometry" />
        </mxCell>
        <mxCell id="HOemkFVx_ZeqiPZnyjtU-99" value="paid" style="text;strokeColor=#666666;fillColor=#f5f5f5;align=left;verticalAlign=middle;spacingLeft=4;spacingRight=4;overflow=hidden;points=[[0,0.5],[1,0.5]];portConstraint=eastwest;rotatable=0;whiteSpace=wrap;html=1;fontColor=#333333;swimlaneLine=0;" parent="HOemkFVx_ZeqiPZnyjtU-93" vertex="1">
          <mxGeometry y="210" width="200" height="30" as="geometry" />
        </mxCell>
        <mxCell id="HOemkFVx_ZeqiPZnyjtU-100" value="vnp_txnref" style="text;strokeColor=#666666;fillColor=#f5f5f5;align=left;verticalAlign=middle;spacingLeft=4;spacingRight=4;overflow=hidden;points=[[0,0.5],[1,0.5]];portConstraint=eastwest;rotatable=0;whiteSpace=wrap;html=1;fontColor=#333333;swimlaneLine=0;fontStyle=0" parent="HOemkFVx_ZeqiPZnyjtU-93" vertex="1">
          <mxGeometry y="240" width="200" height="30" as="geometry" />
        </mxCell>
        <mxCell id="HOemkFVx_ZeqiPZnyjtU-101" value="vnp_url" style="text;strokeColor=#666666;fillColor=#f5f5f5;align=left;verticalAlign=middle;spacingLeft=4;spacingRight=4;overflow=hidden;points=[[0,0.5],[1,0.5]];portConstraint=eastwest;rotatable=0;whiteSpace=wrap;html=1;fontColor=#333333;swimlaneLine=0;" parent="HOemkFVx_ZeqiPZnyjtU-93" vertex="1">
          <mxGeometry y="270" width="200" height="30" as="geometry" />
        </mxCell>
        <mxCell id="z1mKPCpYzbw2HojQKFsz-3" value="vpn_created_at" style="text;strokeColor=#666666;fillColor=#f5f5f5;align=left;verticalAlign=middle;spacingLeft=4;spacingRight=4;overflow=hidden;points=[[0,0.5],[1,0.5]];portConstraint=eastwest;rotatable=0;whiteSpace=wrap;html=1;fontColor=#333333;swimlaneLine=0;" parent="HOemkFVx_ZeqiPZnyjtU-93" vertex="1">
          <mxGeometry y="300" width="200" height="30" as="geometry" />
        </mxCell>
        <mxCell id="qaf1V5WmRCfZ3H6pWQko-0" value="create_at" style="text;strokeColor=#666666;fillColor=#f5f5f5;align=left;verticalAlign=middle;spacingLeft=4;spacingRight=4;overflow=hidden;points=[[0,0.5],[1,0.5]];portConstraint=eastwest;rotatable=0;whiteSpace=wrap;html=1;fontColor=#333333;swimlaneLine=0;" parent="HOemkFVx_ZeqiPZnyjtU-93" vertex="1">
          <mxGeometry y="330" width="200" height="30" as="geometry" />
        </mxCell>
        <mxCell id="WAk3xl-ZJtL4ZgbHVA_4-0" value="deleted_at" style="text;strokeColor=#6c8ebf;fillColor=#dae8fc;align=left;verticalAlign=middle;spacingLeft=4;spacingRight=4;overflow=hidden;points=[[0,0.5],[1,0.5]];portConstraint=eastwest;rotatable=0;whiteSpace=wrap;html=1;swimlaneLine=0;" parent="HOemkFVx_ZeqiPZnyjtU-93" vertex="1">
          <mxGeometry y="360" width="200" height="30" as="geometry" />
        </mxCell>
        <mxCell id="z1mKPCpYzbw2HojQKFsz-5" value="ghn_order_code" style="text;strokeColor=#666666;fillColor=#f5f5f5;align=left;verticalAlign=middle;spacingLeft=4;spacingRight=4;overflow=hidden;points=[[0,0.5],[1,0.5]];portConstraint=eastwest;rotatable=0;whiteSpace=wrap;html=1;fontColor=#333333;swimlaneLine=0;" parent="HOemkFVx_ZeqiPZnyjtU-93" vertex="1">
          <mxGeometry y="390" width="200" height="30" as="geometry" />
        </mxCell>
        <mxCell id="qg1PemODLyPjF49uF8xl-0" value="current_status" style="text;strokeColor=#6c8ebf;fillColor=#dae8fc;align=left;verticalAlign=middle;spacingLeft=4;spacingRight=4;overflow=hidden;points=[[0,0.5],[1,0.5]];portConstraint=eastwest;rotatable=0;whiteSpace=wrap;html=1;swimlaneLine=0;" parent="HOemkFVx_ZeqiPZnyjtU-93" vertex="1">
          <mxGeometry y="420" width="200" height="30" as="geometry" />
        </mxCell>
        <mxCell id="qg1PemODLyPjF49uF8xl-1" value="current_status_name" style="text;strokeColor=#6c8ebf;fillColor=#dae8fc;align=left;verticalAlign=middle;spacingLeft=4;spacingRight=4;overflow=hidden;points=[[0,0.5],[1,0.5]];portConstraint=eastwest;rotatable=0;whiteSpace=wrap;html=1;swimlaneLine=0;" parent="HOemkFVx_ZeqiPZnyjtU-93" vertex="1">
          <mxGeometry y="450" width="200" height="30" as="geometry" />
        </mxCell>
        <mxCell id="HOemkFVx_ZeqiPZnyjtU-104" value="from_address_id (F key)" style="text;strokeColor=#666666;fillColor=#f5f5f5;align=left;verticalAlign=middle;spacingLeft=4;spacingRight=4;overflow=hidden;points=[[0,0.5],[1,0.5]];portConstraint=eastwest;rotatable=0;whiteSpace=wrap;html=1;fontColor=#333333;swimlaneLine=0;fontStyle=6" parent="HOemkFVx_ZeqiPZnyjtU-93" vertex="1">
          <mxGeometry y="480" width="200" height="30" as="geometry" />
        </mxCell>
        <mxCell id="HOemkFVx_ZeqiPZnyjtU-105" value="to_address_id (F key)" style="text;strokeColor=#666666;fillColor=#f5f5f5;align=left;verticalAlign=middle;spacingLeft=4;spacingRight=4;overflow=hidden;points=[[0,0.5],[1,0.5]];portConstraint=eastwest;rotatable=0;whiteSpace=wrap;html=1;fontColor=#333333;swimlaneLine=0;fontStyle=6" parent="HOemkFVx_ZeqiPZnyjtU-93" vertex="1">
          <mxGeometry y="510" width="200" height="30" as="geometry" />
        </mxCell>
        <mxCell id="HOemkFVx_ZeqiPZnyjtU-106" value="user_ID (F key)" style="text;strokeColor=#666666;fillColor=#f5f5f5;align=left;verticalAlign=middle;spacingLeft=4;spacingRight=4;overflow=hidden;points=[[0,0.5],[1,0.5]];portConstraint=eastwest;rotatable=0;whiteSpace=wrap;html=1;fontColor=#333333;fontStyle=6;swimlaneLine=0;" parent="HOemkFVx_ZeqiPZnyjtU-93" vertex="1">
          <mxGeometry y="540" width="200" height="30" as="geometry" />
        </mxCell>
        <mxCell id="HOemkFVx_ZeqiPZnyjtU-107" value="seller_ID (F key)" style="text;strokeColor=#666666;fillColor=#f5f5f5;align=left;verticalAlign=middle;spacingLeft=4;spacingRight=4;overflow=hidden;points=[[0,0.5],[1,0.5]];portConstraint=eastwest;rotatable=0;whiteSpace=wrap;html=1;fontColor=#333333;fontStyle=6;swimlaneLine=0;" parent="HOemkFVx_ZeqiPZnyjtU-93" vertex="1">
          <mxGeometry y="570" width="200" height="30" as="geometry" />
        </mxCell>
        <mxCell id="HOemkFVx_ZeqiPZnyjtU-109" value="coupon_ID (F key)" style="text;strokeColor=#666666;fillColor=#f5f5f5;align=left;verticalAlign=middle;spacingLeft=4;spacingRight=4;overflow=hidden;points=[[0,0.5],[1,0.5]];portConstraint=eastwest;rotatable=0;whiteSpace=wrap;html=1;fontColor=#333333;fontStyle=6;swimlaneLine=0;" parent="HOemkFVx_ZeqiPZnyjtU-93" vertex="1">
          <mxGeometry y="600" width="200" height="30" as="geometry" />
        </mxCell>
        <mxCell id="HOemkFVx_ZeqiPZnyjtU-110" style="edgeStyle=orthogonalEdgeStyle;rounded=0;orthogonalLoop=1;jettySize=auto;html=1;fontFamily=Helvetica;fontSize=12;fontColor=default;fontStyle=0;swimlaneLine=0;" parent="HOemkFVx_ZeqiPZnyjtU-1" source="HOemkFVx_ZeqiPZnyjtU-11" target="HOemkFVx_ZeqiPZnyjtU-106" edge="1">
          <mxGeometry relative="1" as="geometry">
            <Array as="points">
              <mxPoint x="1290" y="300" />
              <mxPoint x="1410" y="300" />
              <mxPoint x="1410" y="760" />
            </Array>
          </mxGeometry>
        </mxCell>
        <mxCell id="HOemkFVx_ZeqiPZnyjtU-111" value="1" style="edgeLabel;html=1;align=center;verticalAlign=middle;resizable=0;points=[];" parent="HOemkFVx_ZeqiPZnyjtU-110" vertex="1" connectable="0">
          <mxGeometry x="-0.9303" relative="1" as="geometry">
            <mxPoint x="-6" y="-13" as="offset" />
          </mxGeometry>
        </mxCell>
        <mxCell id="HOemkFVx_ZeqiPZnyjtU-112" value="0..*" style="edgeLabel;html=1;align=center;verticalAlign=middle;resizable=0;points=[];" parent="HOemkFVx_ZeqiPZnyjtU-110" vertex="1" connectable="0">
          <mxGeometry x="0.8625" relative="1" as="geometry">
            <mxPoint x="13" y="14" as="offset" />
          </mxGeometry>
        </mxCell>
        <mxCell id="HOemkFVx_ZeqiPZnyjtU-113" value="Order_Items" style="swimlane;fontStyle=0;childLayout=stackLayout;horizontal=1;startSize=30;horizontalStack=0;resizeParent=1;resizeParentMax=0;resizeLast=0;collapsible=1;marginBottom=0;whiteSpace=wrap;html=1;fillColor=#dae8fc;strokeColor=#6c8ebf;fontSize=16;swimlaneLine=0;" parent="HOemkFVx_ZeqiPZnyjtU-1" vertex="1">
          <mxGeometry x="1713" y="850" width="200" height="210" as="geometry" />
        </mxCell>
        <mxCell id="HOemkFVx_ZeqiPZnyjtU-114" value="order_item_ID (P key)" style="text;strokeColor=#666666;fillColor=#f5f5f5;align=left;verticalAlign=middle;spacingLeft=4;spacingRight=4;overflow=hidden;points=[[0,0.5],[1,0.5]];portConstraint=eastwest;rotatable=0;whiteSpace=wrap;html=1;fontStyle=1;horizontal=1;fontColor=#333333;swimlaneLine=0;" parent="HOemkFVx_ZeqiPZnyjtU-113" vertex="1">
          <mxGeometry y="30" width="200" height="30" as="geometry" />
        </mxCell>
        <mxCell id="HOemkFVx_ZeqiPZnyjtU-115" value="quantity" style="text;strokeColor=#666666;fillColor=#f5f5f5;align=left;verticalAlign=middle;spacingLeft=4;spacingRight=4;overflow=hidden;points=[[0,0.5],[1,0.5]];portConstraint=eastwest;rotatable=0;whiteSpace=wrap;html=1;fontColor=#333333;swimlaneLine=0;" parent="HOemkFVx_ZeqiPZnyjtU-113" vertex="1">
          <mxGeometry y="60" width="200" height="30" as="geometry" />
        </mxCell>
        <mxCell id="HOemkFVx_ZeqiPZnyjtU-116" value="price" style="text;strokeColor=#666666;fillColor=#f5f5f5;align=left;verticalAlign=middle;spacingLeft=4;spacingRight=4;overflow=hidden;points=[[0,0.5],[1,0.5]];portConstraint=eastwest;rotatable=0;whiteSpace=wrap;html=1;fontColor=#333333;swimlaneLine=0;" parent="HOemkFVx_ZeqiPZnyjtU-113" vertex="1">
          <mxGeometry y="90" width="200" height="30" as="geometry" />
        </mxCell>
        <mxCell id="WAk3xl-ZJtL4ZgbHVA_4-1" value="deleted_at" style="text;strokeColor=#6c8ebf;fillColor=#dae8fc;align=left;verticalAlign=middle;spacingLeft=4;spacingRight=4;overflow=hidden;points=[[0,0.5],[1,0.5]];portConstraint=eastwest;rotatable=0;whiteSpace=wrap;html=1;swimlaneLine=0;" parent="HOemkFVx_ZeqiPZnyjtU-113" vertex="1">
          <mxGeometry y="120" width="200" height="30" as="geometry" />
        </mxCell>
        <mxCell id="HOemkFVx_ZeqiPZnyjtU-117" value="order_ID (F key)" style="text;strokeColor=#666666;fillColor=#f5f5f5;align=left;verticalAlign=middle;spacingLeft=4;spacingRight=4;overflow=hidden;points=[[0,0.5],[1,0.5]];portConstraint=eastwest;rotatable=0;whiteSpace=wrap;html=1;fontColor=#333333;fontStyle=6;swimlaneLine=0;" parent="HOemkFVx_ZeqiPZnyjtU-113" vertex="1">
          <mxGeometry y="150" width="200" height="30" as="geometry" />
        </mxCell>
        <mxCell id="HOemkFVx_ZeqiPZnyjtU-118" value="product_variant_ID&amp;nbsp;&amp;nbsp;(F key)" style="text;strokeColor=#666666;fillColor=#f5f5f5;align=left;verticalAlign=middle;spacingLeft=4;spacingRight=4;overflow=hidden;points=[[0,0.5],[1,0.5]];portConstraint=eastwest;rotatable=0;whiteSpace=wrap;html=1;fontColor=#333333;fontStyle=6;swimlaneLine=0;" parent="HOemkFVx_ZeqiPZnyjtU-113" vertex="1">
          <mxGeometry y="180" width="200" height="30" as="geometry" />
        </mxCell>
        <mxCell id="HOemkFVx_ZeqiPZnyjtU-119" style="edgeStyle=orthogonalEdgeStyle;rounded=0;orthogonalLoop=1;jettySize=auto;html=1;" parent="HOemkFVx_ZeqiPZnyjtU-1" source="HOemkFVx_ZeqiPZnyjtU-120" target="HOemkFVx_ZeqiPZnyjtU-217" edge="1">
          <mxGeometry relative="1" as="geometry" />
        </mxCell>
        <mxCell id="HOemkFVx_ZeqiPZnyjtU-120" value="Reviews" style="swimlane;fontStyle=0;childLayout=stackLayout;horizontal=1;startSize=30;horizontalStack=0;resizeParent=1;resizeParentMax=0;resizeLast=0;collapsible=1;marginBottom=0;whiteSpace=wrap;html=1;fillColor=#dae8fc;strokeColor=#6c8ebf;fontSize=16;swimlaneLine=0;" parent="HOemkFVx_ZeqiPZnyjtU-1" vertex="1">
          <mxGeometry x="573" y="237" width="200" height="210" as="geometry" />
        </mxCell>
        <mxCell id="HOemkFVx_ZeqiPZnyjtU-121" value="review_ID (P key)" style="text;strokeColor=#666666;fillColor=#f5f5f5;align=left;verticalAlign=middle;spacingLeft=4;spacingRight=4;overflow=hidden;points=[[0,0.5],[1,0.5]];portConstraint=eastwest;rotatable=0;whiteSpace=wrap;html=1;fontStyle=1;horizontal=1;fontColor=#333333;swimlaneLine=0;" parent="HOemkFVx_ZeqiPZnyjtU-120" vertex="1">
          <mxGeometry y="30" width="200" height="30" as="geometry" />
        </mxCell>
        <mxCell id="HOemkFVx_ZeqiPZnyjtU-122" value="rating" style="text;strokeColor=#666666;fillColor=#f5f5f5;align=left;verticalAlign=middle;spacingLeft=4;spacingRight=4;overflow=hidden;points=[[0,0.5],[1,0.5]];portConstraint=eastwest;rotatable=0;whiteSpace=wrap;html=1;fontColor=#333333;swimlaneLine=0;" parent="HOemkFVx_ZeqiPZnyjtU-120" vertex="1">
          <mxGeometry y="60" width="200" height="30" as="geometry" />
        </mxCell>
        <mxCell id="HOemkFVx_ZeqiPZnyjtU-123" value="comment" style="text;strokeColor=#666666;fillColor=#f5f5f5;align=left;verticalAlign=middle;spacingLeft=4;spacingRight=4;overflow=hidden;points=[[0,0.5],[1,0.5]];portConstraint=eastwest;rotatable=0;whiteSpace=wrap;html=1;fontColor=#333333;swimlaneLine=0;" parent="HOemkFVx_ZeqiPZnyjtU-120" vertex="1">
          <mxGeometry y="90" width="200" height="30" as="geometry" />
        </mxCell>
        <mxCell id="HOemkFVx_ZeqiPZnyjtU-124" value="create_at" style="text;strokeColor=#666666;fillColor=#f5f5f5;align=left;verticalAlign=middle;spacingLeft=4;spacingRight=4;overflow=hidden;points=[[0,0.5],[1,0.5]];portConstraint=eastwest;rotatable=0;whiteSpace=wrap;html=1;fontColor=#333333;swimlaneLine=0;" parent="HOemkFVx_ZeqiPZnyjtU-120" vertex="1">
          <mxGeometry y="120" width="200" height="30" as="geometry" />
        </mxCell>
        <mxCell id="HOemkFVx_ZeqiPZnyjtU-125" value="user_ID (F key)" style="text;strokeColor=#666666;fillColor=#f5f5f5;align=left;verticalAlign=middle;spacingLeft=4;spacingRight=4;overflow=hidden;points=[[0,0.5],[1,0.5]];portConstraint=eastwest;rotatable=0;whiteSpace=wrap;html=1;fontColor=#333333;fontStyle=6;swimlaneLine=0;" parent="HOemkFVx_ZeqiPZnyjtU-120" vertex="1">
          <mxGeometry y="150" width="200" height="30" as="geometry" />
        </mxCell>
        <mxCell id="HOemkFVx_ZeqiPZnyjtU-126" value="product_variant_ID&amp;nbsp;&amp;nbsp;(F key)" style="text;strokeColor=#666666;fillColor=#f5f5f5;align=left;verticalAlign=middle;spacingLeft=4;spacingRight=4;overflow=hidden;points=[[0,0.5],[1,0.5]];portConstraint=eastwest;rotatable=0;whiteSpace=wrap;html=1;fontColor=#333333;fontStyle=6;swimlaneLine=0;" parent="HOemkFVx_ZeqiPZnyjtU-120" vertex="1">
          <mxGeometry y="180" width="200" height="30" as="geometry" />
        </mxCell>
        <mxCell id="HOemkFVx_ZeqiPZnyjtU-127" style="edgeStyle=orthogonalEdgeStyle;rounded=0;orthogonalLoop=1;jettySize=auto;html=1;fontFamily=Helvetica;fontSize=12;fontColor=default;fontStyle=0;swimlaneLine=0;" parent="HOemkFVx_ZeqiPZnyjtU-1" source="HOemkFVx_ZeqiPZnyjtU-130" target="HOemkFVx_ZeqiPZnyjtU-109" edge="1">
          <mxGeometry relative="1" as="geometry">
            <Array as="points">
              <mxPoint x="2090" y="816" />
            </Array>
          </mxGeometry>
        </mxCell>
        <mxCell id="HOemkFVx_ZeqiPZnyjtU-128" value="0..1" style="edgeLabel;html=1;align=center;verticalAlign=middle;resizable=0;points=[];" parent="HOemkFVx_ZeqiPZnyjtU-127" vertex="1" connectable="0">
          <mxGeometry x="-0.9506" y="3" relative="1" as="geometry">
            <mxPoint x="-26" as="offset" />
          </mxGeometry>
        </mxCell>
        <mxCell id="HOemkFVx_ZeqiPZnyjtU-129" value="0..*" style="edgeLabel;html=1;align=center;verticalAlign=middle;resizable=0;points=[];" parent="HOemkFVx_ZeqiPZnyjtU-127" vertex="1" connectable="0">
          <mxGeometry x="0.915" y="2" relative="1" as="geometry">
            <mxPoint x="-11" y="12" as="offset" />
          </mxGeometry>
        </mxCell>
        <mxCell id="HOemkFVx_ZeqiPZnyjtU-130" value="Coupons" style="swimlane;fontStyle=0;childLayout=stackLayout;horizontal=1;startSize=30;horizontalStack=0;resizeParent=1;resizeParentMax=0;resizeLast=0;collapsible=1;marginBottom=0;whiteSpace=wrap;html=1;fillColor=#dae8fc;strokeColor=#6c8ebf;fontSize=16;swimlaneLine=0;" parent="HOemkFVx_ZeqiPZnyjtU-1" vertex="1">
          <mxGeometry x="1980" y="78" width="200" height="390" as="geometry" />
        </mxCell>
        <mxCell id="HOemkFVx_ZeqiPZnyjtU-131" value="coupon_ID (P key)" style="text;strokeColor=#666666;fillColor=#f5f5f5;align=left;verticalAlign=middle;spacingLeft=4;spacingRight=4;overflow=hidden;points=[[0,0.5],[1,0.5]];portConstraint=eastwest;rotatable=0;whiteSpace=wrap;html=1;fontStyle=1;horizontal=1;fontColor=#333333;swimlaneLine=0;" parent="HOemkFVx_ZeqiPZnyjtU-130" vertex="1">
          <mxGeometry y="30" width="200" height="30" as="geometry" />
        </mxCell>
        <mxCell id="HOemkFVx_ZeqiPZnyjtU-132" value="code (unique)" style="text;strokeColor=#666666;fillColor=#f5f5f5;align=left;verticalAlign=middle;spacingLeft=4;spacingRight=4;overflow=hidden;points=[[0,0.5],[1,0.5]];portConstraint=eastwest;rotatable=0;whiteSpace=wrap;html=1;fontColor=#333333;swimlaneLine=0;" parent="HOemkFVx_ZeqiPZnyjtU-130" vertex="1">
          <mxGeometry y="60" width="200" height="30" as="geometry" />
        </mxCell>
        <mxCell id="HOemkFVx_ZeqiPZnyjtU-133" value="description" style="text;strokeColor=#666666;fillColor=#f5f5f5;align=left;verticalAlign=middle;spacingLeft=4;spacingRight=4;overflow=hidden;points=[[0,0.5],[1,0.5]];portConstraint=eastwest;rotatable=0;whiteSpace=wrap;html=1;fontColor=#333333;swimlaneLine=0;" parent="HOemkFVx_ZeqiPZnyjtU-130" vertex="1">
          <mxGeometry y="90" width="200" height="30" as="geometry" />
        </mxCell>
        <mxCell id="HOemkFVx_ZeqiPZnyjtU-134" value="discount_type (percentage, fixed)" style="text;strokeColor=#666666;fillColor=#f5f5f5;align=left;verticalAlign=middle;spacingLeft=4;spacingRight=4;overflow=hidden;points=[[0,0.5],[1,0.5]];portConstraint=eastwest;rotatable=0;whiteSpace=wrap;html=1;fontColor=#333333;swimlaneLine=0;" parent="HOemkFVx_ZeqiPZnyjtU-130" vertex="1">
          <mxGeometry y="120" width="200" height="30" as="geometry" />
        </mxCell>
        <mxCell id="HOemkFVx_ZeqiPZnyjtU-135" value="discount_value" style="text;strokeColor=#666666;fillColor=#f5f5f5;align=left;verticalAlign=middle;spacingLeft=4;spacingRight=4;overflow=hidden;points=[[0,0.5],[1,0.5]];portConstraint=eastwest;rotatable=0;whiteSpace=wrap;html=1;fontColor=#333333;swimlaneLine=0;" parent="HOemkFVx_ZeqiPZnyjtU-130" vertex="1">
          <mxGeometry y="150" width="200" height="30" as="geometry" />
        </mxCell>
        <mxCell id="HOemkFVx_ZeqiPZnyjtU-136" value="maximum_discount" style="text;strokeColor=#666666;fillColor=#f5f5f5;align=left;verticalAlign=middle;spacingLeft=4;spacingRight=4;overflow=hidden;points=[[0,0.5],[1,0.5]];portConstraint=eastwest;rotatable=0;whiteSpace=wrap;html=1;fontColor=#333333;swimlaneLine=0;" parent="HOemkFVx_ZeqiPZnyjtU-130" vertex="1">
          <mxGeometry y="180" width="200" height="30" as="geometry" />
        </mxCell>
        <mxCell id="HOemkFVx_ZeqiPZnyjtU-137" value="minimum_order_value" style="text;strokeColor=#666666;fillColor=#f5f5f5;align=left;verticalAlign=middle;spacingLeft=4;spacingRight=4;overflow=hidden;points=[[0,0.5],[1,0.5]];portConstraint=eastwest;rotatable=0;whiteSpace=wrap;html=1;fontColor=#333333;swimlaneLine=0;" parent="HOemkFVx_ZeqiPZnyjtU-130" vertex="1">
          <mxGeometry y="210" width="200" height="30" as="geometry" />
        </mxCell>
        <mxCell id="HOemkFVx_ZeqiPZnyjtU-138" value="usage_limit" style="text;strokeColor=#666666;fillColor=#f5f5f5;align=left;verticalAlign=middle;spacingLeft=4;spacingRight=4;overflow=hidden;points=[[0,0.5],[1,0.5]];portConstraint=eastwest;rotatable=0;whiteSpace=wrap;html=1;fontColor=#333333;swimlaneLine=0;" parent="HOemkFVx_ZeqiPZnyjtU-130" vertex="1">
          <mxGeometry y="240" width="200" height="30" as="geometry" />
        </mxCell>
        <mxCell id="HOemkFVx_ZeqiPZnyjtU-139" value="usage_count" style="text;strokeColor=#666666;fillColor=#f5f5f5;align=left;verticalAlign=middle;spacingLeft=4;spacingRight=4;overflow=hidden;points=[[0,0.5],[1,0.5]];portConstraint=eastwest;rotatable=0;whiteSpace=wrap;html=1;fontColor=#333333;swimlaneLine=0;" parent="HOemkFVx_ZeqiPZnyjtU-130" vertex="1">
          <mxGeometry y="270" width="200" height="30" as="geometry" />
        </mxCell>
        <mxCell id="HOemkFVx_ZeqiPZnyjtU-140" value="start_date" style="text;strokeColor=#666666;fillColor=#f5f5f5;align=left;verticalAlign=middle;spacingLeft=4;spacingRight=4;overflow=hidden;points=[[0,0.5],[1,0.5]];portConstraint=eastwest;rotatable=0;whiteSpace=wrap;html=1;fontColor=#333333;swimlaneLine=0;" parent="HOemkFVx_ZeqiPZnyjtU-130" vertex="1">
          <mxGeometry y="300" width="200" height="30" as="geometry" />
        </mxCell>
        <mxCell id="HOemkFVx_ZeqiPZnyjtU-141" value="end_date" style="text;strokeColor=#666666;fillColor=#f5f5f5;align=left;verticalAlign=middle;spacingLeft=4;spacingRight=4;overflow=hidden;points=[[0,0.5],[1,0.5]];portConstraint=eastwest;rotatable=0;whiteSpace=wrap;html=1;fontColor=#333333;swimlaneLine=0;" parent="HOemkFVx_ZeqiPZnyjtU-130" vertex="1">
          <mxGeometry y="330" width="200" height="30" as="geometry" />
        </mxCell>
        <mxCell id="HOemkFVx_ZeqiPZnyjtU-142" value="seller_ID (F key)" style="text;strokeColor=#666666;fillColor=#f5f5f5;align=left;verticalAlign=middle;spacingLeft=4;spacingRight=4;overflow=hidden;points=[[0,0.5],[1,0.5]];portConstraint=eastwest;rotatable=0;whiteSpace=wrap;html=1;fontColor=#333333;fontStyle=6;swimlaneLine=0;" parent="HOemkFVx_ZeqiPZnyjtU-130" vertex="1">
          <mxGeometry y="360" width="200" height="30" as="geometry" />
        </mxCell>
        <mxCell id="HOemkFVx_ZeqiPZnyjtU-143" style="edgeStyle=orthogonalEdgeStyle;rounded=0;orthogonalLoop=1;jettySize=auto;html=1;fontFamily=Helvetica;fontSize=12;fontColor=default;fontStyle=0;swimlaneLine=0;" parent="HOemkFVx_ZeqiPZnyjtU-1" source="HOemkFVx_ZeqiPZnyjtU-146" target="HOemkFVx_ZeqiPZnyjtU-155" edge="1">
          <mxGeometry relative="1" as="geometry" />
        </mxCell>
        <mxCell id="HOemkFVx_ZeqiPZnyjtU-144" value="2..10" style="edgeLabel;html=1;align=center;verticalAlign=middle;resizable=0;points=[];" parent="HOemkFVx_ZeqiPZnyjtU-143" vertex="1" connectable="0">
          <mxGeometry x="0.7714" y="-2" relative="1" as="geometry">
            <mxPoint x="-6" y="14" as="offset" />
          </mxGeometry>
        </mxCell>
        <mxCell id="HOemkFVx_ZeqiPZnyjtU-145" value="1" style="edgeLabel;html=1;align=center;verticalAlign=middle;resizable=0;points=[];" parent="HOemkFVx_ZeqiPZnyjtU-143" vertex="1" connectable="0">
          <mxGeometry x="-0.7905" y="-3" relative="1" as="geometry">
            <mxPoint x="-17" y="-10" as="offset" />
          </mxGeometry>
        </mxCell>
        <mxCell id="HOemkFVx_ZeqiPZnyjtU-146" value="Product_Attributes" style="swimlane;fontStyle=0;childLayout=stackLayout;horizontal=1;startSize=30;horizontalStack=0;resizeParent=1;resizeParentMax=0;resizeLast=0;collapsible=1;marginBottom=0;whiteSpace=wrap;html=1;fillColor=#dae8fc;strokeColor=#6c8ebf;fontSize=16;swimlaneLine=0;" parent="HOemkFVx_ZeqiPZnyjtU-1" vertex="1">
          <mxGeometry x="270" y="510" width="200" height="90" as="geometry" />
        </mxCell>
        <mxCell id="HOemkFVx_ZeqiPZnyjtU-147" value="product_attribute_ID (P key)" style="text;strokeColor=#666666;fillColor=#f5f5f5;align=left;verticalAlign=middle;spacingLeft=4;spacingRight=4;overflow=hidden;points=[[0,0.5],[1,0.5]];portConstraint=eastwest;rotatable=0;whiteSpace=wrap;html=1;fontStyle=1;horizontal=1;fontColor=#333333;swimlaneLine=0;" parent="HOemkFVx_ZeqiPZnyjtU-146" vertex="1">
          <mxGeometry y="30" width="200" height="30" as="geometry" />
        </mxCell>
        <mxCell id="HOemkFVx_ZeqiPZnyjtU-148" value="name" style="text;strokeColor=#666666;fillColor=#f5f5f5;align=left;verticalAlign=middle;spacingLeft=4;spacingRight=4;overflow=hidden;points=[[0,0.5],[1,0.5]];portConstraint=eastwest;rotatable=0;whiteSpace=wrap;html=1;fontColor=#333333;swimlaneLine=0;" parent="HOemkFVx_ZeqiPZnyjtU-146" vertex="1">
          <mxGeometry y="60" width="200" height="30" as="geometry" />
        </mxCell>
        <mxCell id="HOemkFVx_ZeqiPZnyjtU-149" style="edgeStyle=orthogonalEdgeStyle;rounded=0;orthogonalLoop=1;jettySize=auto;html=1;fontFamily=Helvetica;fontSize=12;fontColor=default;fontStyle=0;swimlaneLine=0;" parent="HOemkFVx_ZeqiPZnyjtU-1" source="HOemkFVx_ZeqiPZnyjtU-152" target="HOemkFVx_ZeqiPZnyjtU-202" edge="1">
          <mxGeometry relative="1" as="geometry">
            <mxPoint x="939" y="651" as="targetPoint" />
            <Array as="points">
              <mxPoint x="490" y="615" />
            </Array>
          </mxGeometry>
        </mxCell>
        <mxCell id="HOemkFVx_ZeqiPZnyjtU-150" value="1..*" style="edgeLabel;html=1;align=center;verticalAlign=middle;resizable=0;points=[];" parent="HOemkFVx_ZeqiPZnyjtU-149" vertex="1" connectable="0">
          <mxGeometry x="0.8376" y="-2" relative="1" as="geometry">
            <mxPoint x="-5" y="-15" as="offset" />
          </mxGeometry>
        </mxCell>
        <mxCell id="HOemkFVx_ZeqiPZnyjtU-151" value="1" style="edgeLabel;html=1;align=center;verticalAlign=middle;resizable=0;points=[];" parent="HOemkFVx_ZeqiPZnyjtU-149" vertex="1" connectable="0">
          <mxGeometry x="-0.7958" y="3" relative="1" as="geometry">
            <mxPoint x="-17" y="-1" as="offset" />
          </mxGeometry>
        </mxCell>
        <mxCell id="HOemkFVx_ZeqiPZnyjtU-152" value="Product_Attribute_Values" style="swimlane;fontStyle=0;childLayout=stackLayout;horizontal=1;startSize=30;horizontalStack=0;resizeParent=1;resizeParentMax=0;resizeLast=0;collapsible=1;marginBottom=0;whiteSpace=wrap;html=1;fillColor=#dae8fc;strokeColor=#6c8ebf;fontSize=16;swimlaneLine=0;" parent="HOemkFVx_ZeqiPZnyjtU-1" vertex="1">
          <mxGeometry x="420" y="730" width="226" height="120" as="geometry" />
        </mxCell>
        <mxCell id="HOemkFVx_ZeqiPZnyjtU-153" value="product_attribute_value_ID (P key)" style="text;strokeColor=#666666;fillColor=#f5f5f5;align=left;verticalAlign=middle;spacingLeft=4;spacingRight=4;overflow=hidden;points=[[0,0.5],[1,0.5]];portConstraint=eastwest;rotatable=0;whiteSpace=wrap;html=1;fontStyle=1;horizontal=1;fontColor=#333333;swimlaneLine=0;" parent="HOemkFVx_ZeqiPZnyjtU-152" vertex="1">
          <mxGeometry y="30" width="226" height="30" as="geometry" />
        </mxCell>
        <mxCell id="HOemkFVx_ZeqiPZnyjtU-154" value="value" style="text;strokeColor=#666666;fillColor=#f5f5f5;align=left;verticalAlign=middle;spacingLeft=4;spacingRight=4;overflow=hidden;points=[[0,0.5],[1,0.5]];portConstraint=eastwest;rotatable=0;whiteSpace=wrap;html=1;fontColor=#333333;swimlaneLine=0;" parent="HOemkFVx_ZeqiPZnyjtU-152" vertex="1">
          <mxGeometry y="60" width="226" height="30" as="geometry" />
        </mxCell>
        <mxCell id="HOemkFVx_ZeqiPZnyjtU-155" value="product_attribute_ID (F key)" style="text;strokeColor=#666666;fillColor=#f5f5f5;align=left;verticalAlign=middle;spacingLeft=4;spacingRight=4;overflow=hidden;points=[[0,0.5],[1,0.5]];portConstraint=eastwest;rotatable=0;whiteSpace=wrap;html=1;fontColor=#333333;fontStyle=6;swimlaneLine=0;" parent="HOemkFVx_ZeqiPZnyjtU-152" vertex="1">
          <mxGeometry y="90" width="226" height="30" as="geometry" />
        </mxCell>
        <mxCell id="HOemkFVx_ZeqiPZnyjtU-156" style="edgeStyle=orthogonalEdgeStyle;rounded=0;orthogonalLoop=1;jettySize=auto;html=1;fontFamily=Helvetica;fontSize=12;fontColor=default;fontStyle=0;swimlaneLine=0;" parent="HOemkFVx_ZeqiPZnyjtU-1" source="HOemkFVx_ZeqiPZnyjtU-165" target="HOemkFVx_ZeqiPZnyjtU-75" edge="1">
          <mxGeometry relative="1" as="geometry">
            <Array as="points">
              <mxPoint x="1160" y="996" />
              <mxPoint x="1160" y="660" />
            </Array>
          </mxGeometry>
        </mxCell>
        <mxCell id="HOemkFVx_ZeqiPZnyjtU-157" value="1" style="edgeLabel;html=1;align=center;verticalAlign=middle;resizable=0;points=[];" parent="HOemkFVx_ZeqiPZnyjtU-156" vertex="1" connectable="0">
          <mxGeometry x="-0.885" y="2" relative="1" as="geometry">
            <mxPoint x="-7" y="-13" as="offset" />
          </mxGeometry>
        </mxCell>
        <mxCell id="HOemkFVx_ZeqiPZnyjtU-158" value="1..10" style="edgeLabel;html=1;align=center;verticalAlign=middle;resizable=0;points=[];" parent="HOemkFVx_ZeqiPZnyjtU-156" vertex="1" connectable="0">
          <mxGeometry x="0.8377" y="3" relative="1" as="geometry">
            <mxPoint x="-10" y="-16" as="offset" />
          </mxGeometry>
        </mxCell>
        <mxCell id="HOemkFVx_ZeqiPZnyjtU-159" style="edgeStyle=orthogonalEdgeStyle;rounded=0;orthogonalLoop=1;jettySize=auto;html=1;fontFamily=Helvetica;fontSize=12;fontColor=default;fontStyle=0;swimlaneLine=0;" parent="HOemkFVx_ZeqiPZnyjtU-1" source="HOemkFVx_ZeqiPZnyjtU-165" target="HOemkFVx_ZeqiPZnyjtU-85" edge="1">
          <mxGeometry relative="1" as="geometry">
            <Array as="points">
              <mxPoint x="603" y="911" />
              <mxPoint x="603" y="1046" />
            </Array>
          </mxGeometry>
        </mxCell>
        <mxCell id="HOemkFVx_ZeqiPZnyjtU-160" value="1" style="edgeLabel;html=1;align=center;verticalAlign=middle;resizable=0;points=[];" parent="HOemkFVx_ZeqiPZnyjtU-159" vertex="1" connectable="0">
          <mxGeometry x="-0.9313" y="-2" relative="1" as="geometry">
            <mxPoint y="-9" as="offset" />
          </mxGeometry>
        </mxCell>
        <mxCell id="HOemkFVx_ZeqiPZnyjtU-161" value="0..10" style="edgeLabel;html=1;align=center;verticalAlign=middle;resizable=0;points=[];" parent="HOemkFVx_ZeqiPZnyjtU-159" vertex="1" connectable="0">
          <mxGeometry x="0.9071" y="-1" relative="1" as="geometry">
            <mxPoint x="-2" y="-15" as="offset" />
          </mxGeometry>
        </mxCell>
        <mxCell id="HOemkFVx_ZeqiPZnyjtU-162" style="edgeStyle=orthogonalEdgeStyle;rounded=0;orthogonalLoop=1;jettySize=auto;html=1;fontFamily=Helvetica;fontSize=12;fontColor=default;fontStyle=0;swimlaneLine=0;" parent="HOemkFVx_ZeqiPZnyjtU-1" source="HOemkFVx_ZeqiPZnyjtU-165" target="HOemkFVx_ZeqiPZnyjtU-80" edge="1">
          <mxGeometry relative="1" as="geometry">
            <Array as="points">
              <mxPoint x="871" y="986" />
              <mxPoint x="871" y="1106" />
            </Array>
          </mxGeometry>
        </mxCell>
        <mxCell id="HOemkFVx_ZeqiPZnyjtU-163" value="1" style="edgeLabel;html=1;align=center;verticalAlign=middle;resizable=0;points=[];" parent="HOemkFVx_ZeqiPZnyjtU-162" vertex="1" connectable="0">
          <mxGeometry x="-0.8195" y="-2" relative="1" as="geometry">
            <mxPoint y="-13" as="offset" />
          </mxGeometry>
        </mxCell>
        <mxCell id="HOemkFVx_ZeqiPZnyjtU-164" value="1..7" style="edgeLabel;html=1;align=center;verticalAlign=middle;resizable=0;points=[];" parent="HOemkFVx_ZeqiPZnyjtU-162" vertex="1" connectable="0">
          <mxGeometry x="0.7858" y="-1" relative="1" as="geometry">
            <mxPoint y="-15" as="offset" />
          </mxGeometry>
        </mxCell>
        <mxCell id="HOemkFVx_ZeqiPZnyjtU-165" value="Products" style="swimlane;fontStyle=0;childLayout=stackLayout;horizontal=1;startSize=30;horizontalStack=0;resizeParent=1;resizeParentMax=0;resizeLast=0;collapsible=1;marginBottom=0;whiteSpace=wrap;html=1;fillColor=#dae8fc;strokeColor=#6c8ebf;fontSize=16;swimlaneLine=0;" parent="HOemkFVx_ZeqiPZnyjtU-1" vertex="1">
          <mxGeometry x="916" y="881" width="217" height="210" as="geometry">
            <mxRectangle x="500" y="1000" width="180" height="30" as="alternateBounds" />
          </mxGeometry>
        </mxCell>
        <mxCell id="HOemkFVx_ZeqiPZnyjtU-166" value="product_ID (P key)" style="text;strokeColor=#666666;fillColor=#f5f5f5;align=left;verticalAlign=middle;spacingLeft=4;spacingRight=4;overflow=hidden;points=[[0,0.5],[1,0.5]];portConstraint=eastwest;rotatable=0;whiteSpace=wrap;html=1;fontStyle=1;horizontal=1;fontColor=#333333;swimlaneLine=0;" parent="HOemkFVx_ZeqiPZnyjtU-165" vertex="1">
          <mxGeometry y="30" width="217" height="30" as="geometry" />
        </mxCell>
        <mxCell id="HOemkFVx_ZeqiPZnyjtU-167" value="name" style="text;strokeColor=#666666;fillColor=#f5f5f5;align=left;verticalAlign=middle;spacingLeft=4;spacingRight=4;overflow=hidden;points=[[0,0.5],[1,0.5]];portConstraint=eastwest;rotatable=0;whiteSpace=wrap;html=1;fontColor=#333333;swimlaneLine=0;" parent="HOemkFVx_ZeqiPZnyjtU-165" vertex="1">
          <mxGeometry y="60" width="217" height="30" as="geometry" />
        </mxCell>
        <mxCell id="HOemkFVx_ZeqiPZnyjtU-168" value="description" style="text;strokeColor=#666666;fillColor=#f5f5f5;align=left;verticalAlign=middle;spacingLeft=4;spacingRight=4;overflow=hidden;points=[[0,0.5],[1,0.5]];portConstraint=eastwest;rotatable=0;whiteSpace=wrap;html=1;fontColor=#333333;swimlaneLine=0;" parent="HOemkFVx_ZeqiPZnyjtU-165" vertex="1">
          <mxGeometry y="90" width="217" height="30" as="geometry" />
        </mxCell>
        <mxCell id="HOemkFVx_ZeqiPZnyjtU-169" value="status (active, locked, deleted)" style="text;strokeColor=#666666;fillColor=#f5f5f5;align=left;verticalAlign=middle;spacingLeft=4;spacingRight=4;overflow=hidden;points=[[0,0.5],[1,0.5]];portConstraint=eastwest;rotatable=0;whiteSpace=wrap;html=1;fontColor=#333333;swimlaneLine=0;" parent="HOemkFVx_ZeqiPZnyjtU-165" vertex="1">
          <mxGeometry y="120" width="217" height="30" as="geometry" />
        </mxCell>
        <mxCell id="HOemkFVx_ZeqiPZnyjtU-170" value="category_ID (F key)" style="text;strokeColor=#666666;fillColor=#f5f5f5;align=left;verticalAlign=middle;spacingLeft=4;spacingRight=4;overflow=hidden;points=[[0,0.5],[1,0.5]];portConstraint=eastwest;rotatable=0;whiteSpace=wrap;html=1;fontColor=#333333;fontStyle=6;swimlaneLine=0;" parent="HOemkFVx_ZeqiPZnyjtU-165" vertex="1">
          <mxGeometry y="150" width="217" height="30" as="geometry" />
        </mxCell>
        <mxCell id="HOemkFVx_ZeqiPZnyjtU-171" value="seller_ID (F key)" style="text;strokeColor=#666666;fillColor=#f5f5f5;align=left;verticalAlign=middle;spacingLeft=4;spacingRight=4;overflow=hidden;points=[[0,0.5],[1,0.5]];portConstraint=eastwest;rotatable=0;whiteSpace=wrap;html=1;fontColor=#333333;fontStyle=6;swimlaneLine=0;" parent="HOemkFVx_ZeqiPZnyjtU-165" vertex="1">
          <mxGeometry y="180" width="217" height="30" as="geometry" />
        </mxCell>
        <mxCell id="HOemkFVx_ZeqiPZnyjtU-172" value="Carts" style="swimlane;fontStyle=0;childLayout=stackLayout;horizontal=1;startSize=30;horizontalStack=0;resizeParent=1;resizeParentMax=0;resizeLast=0;collapsible=1;marginBottom=0;whiteSpace=wrap;html=1;fillColor=#dae8fc;strokeColor=#6c8ebf;fontSize=16;swimlaneLine=0;" parent="HOemkFVx_ZeqiPZnyjtU-1" vertex="1">
          <mxGeometry x="1200" y="420" width="163" height="150" as="geometry" />
        </mxCell>
        <mxCell id="HOemkFVx_ZeqiPZnyjtU-173" value="cart_ID (P key)" style="text;strokeColor=#666666;fillColor=#f5f5f5;align=left;verticalAlign=middle;spacingLeft=4;spacingRight=4;overflow=hidden;points=[[0,0.5],[1,0.5]];portConstraint=eastwest;rotatable=0;whiteSpace=wrap;html=1;fontStyle=1;horizontal=1;fontColor=#333333;swimlaneLine=0;" parent="HOemkFVx_ZeqiPZnyjtU-172" vertex="1">
          <mxGeometry y="30" width="163" height="30" as="geometry" />
        </mxCell>
        <mxCell id="HOemkFVx_ZeqiPZnyjtU-174" value="quantity" style="text;strokeColor=#666666;fillColor=#f5f5f5;align=left;verticalAlign=middle;spacingLeft=4;spacingRight=4;overflow=hidden;points=[[0,0.5],[1,0.5]];portConstraint=eastwest;rotatable=0;whiteSpace=wrap;html=1;fontColor=#333333;swimlaneLine=0;" parent="HOemkFVx_ZeqiPZnyjtU-172" vertex="1">
          <mxGeometry y="60" width="163" height="30" as="geometry" />
        </mxCell>
        <mxCell id="HOemkFVx_ZeqiPZnyjtU-175" value="user_ID (F key)" style="text;strokeColor=#666666;fillColor=#f5f5f5;align=left;verticalAlign=middle;spacingLeft=4;spacingRight=4;overflow=hidden;points=[[0,0.5],[1,0.5]];portConstraint=eastwest;rotatable=0;whiteSpace=wrap;html=1;fontColor=#333333;fontStyle=6;swimlaneLine=0;" parent="HOemkFVx_ZeqiPZnyjtU-172" vertex="1">
          <mxGeometry y="90" width="163" height="30" as="geometry" />
        </mxCell>
        <mxCell id="HOemkFVx_ZeqiPZnyjtU-176" value="product_variant_ID&amp;nbsp;&amp;nbsp;(F key)" style="text;strokeColor=#666666;fillColor=#f5f5f5;align=left;verticalAlign=middle;spacingLeft=4;spacingRight=4;overflow=hidden;points=[[0,0.5],[1,0.5]];portConstraint=eastwest;rotatable=0;whiteSpace=wrap;html=1;fontColor=#333333;fontStyle=6;swimlaneLine=0;" parent="HOemkFVx_ZeqiPZnyjtU-172" vertex="1">
          <mxGeometry y="120" width="163" height="30" as="geometry" />
        </mxCell>
        <mxCell id="HOemkFVx_ZeqiPZnyjtU-200" value="Product_Variant_Values" style="swimlane;fontStyle=0;childLayout=stackLayout;horizontal=1;startSize=30;horizontalStack=0;resizeParent=1;resizeParentMax=0;resizeLast=0;collapsible=1;marginBottom=0;whiteSpace=wrap;html=1;fillColor=#dae8fc;strokeColor=#6c8ebf;fontSize=16;swimlaneLine=0;" parent="HOemkFVx_ZeqiPZnyjtU-1" vertex="1">
          <mxGeometry x="560" y="540" width="226" height="120" as="geometry" />
        </mxCell>
        <mxCell id="HOemkFVx_ZeqiPZnyjtU-201" value="product_variant_value_ID (P key)" style="text;strokeColor=#666666;fillColor=#f5f5f5;align=left;verticalAlign=middle;spacingLeft=4;spacingRight=4;overflow=hidden;points=[[0,0.5],[1,0.5]];portConstraint=eastwest;rotatable=0;whiteSpace=wrap;html=1;fontStyle=1;horizontal=1;fontColor=#333333;swimlaneLine=0;" parent="HOemkFVx_ZeqiPZnyjtU-200" vertex="1">
          <mxGeometry y="30" width="226" height="30" as="geometry" />
        </mxCell>
        <mxCell id="HOemkFVx_ZeqiPZnyjtU-202" value="product_attribute_value_ID (F key)" style="text;strokeColor=#666666;fillColor=#f5f5f5;align=left;verticalAlign=middle;spacingLeft=4;spacingRight=4;overflow=hidden;points=[[0,0.5],[1,0.5]];portConstraint=eastwest;rotatable=0;whiteSpace=wrap;html=1;fontColor=#333333;fontStyle=6;swimlaneLine=0;" parent="HOemkFVx_ZeqiPZnyjtU-200" vertex="1">
          <mxGeometry y="60" width="226" height="30" as="geometry" />
        </mxCell>
        <mxCell id="HOemkFVx_ZeqiPZnyjtU-203" value="product_variant_ID" style="text;strokeColor=#666666;fillColor=#f5f5f5;align=left;verticalAlign=middle;spacingLeft=4;spacingRight=4;overflow=hidden;points=[[0,0.5],[1,0.5]];portConstraint=eastwest;rotatable=0;whiteSpace=wrap;html=1;fontColor=#333333;fontStyle=6;swimlaneLine=0;" parent="HOemkFVx_ZeqiPZnyjtU-200" vertex="1">
          <mxGeometry y="90" width="226" height="30" as="geometry" />
        </mxCell>
        <mxCell id="HOemkFVx_ZeqiPZnyjtU-210" value="Tổng tiền từ các sản phẩm" style="text;html=1;align=center;verticalAlign=middle;resizable=0;points=[];autosize=1;strokeColor=none;fillColor=none;" parent="HOemkFVx_ZeqiPZnyjtU-1" vertex="1">
          <mxGeometry x="1713" y="320" width="170" height="30" as="geometry" />
        </mxCell>
        <mxCell id="HOemkFVx_ZeqiPZnyjtU-211" value="Tổng giảm giá" style="text;html=1;align=center;verticalAlign=middle;resizable=0;points=[];autosize=1;strokeColor=none;fillColor=none;" parent="HOemkFVx_ZeqiPZnyjtU-1" vertex="1">
          <mxGeometry x="1714.5" y="380" width="100" height="30" as="geometry" />
        </mxCell>
        <mxCell id="HOemkFVx_ZeqiPZnyjtU-212" value="Thành tiền cuối cùng" style="text;html=1;align=center;verticalAlign=middle;resizable=0;points=[];autosize=1;strokeColor=none;fillColor=none;" parent="HOemkFVx_ZeqiPZnyjtU-1" vertex="1">
          <mxGeometry x="1714.5" y="410" width="130" height="30" as="geometry" />
        </mxCell>
        <mxCell id="HOemkFVx_ZeqiPZnyjtU-213" value="Doanh thu của seller = 80% subtotal_price + shipping_fee" style="text;html=1;align=center;verticalAlign=middle;resizable=0;points=[];autosize=1;strokeColor=none;fillColor=none;" parent="HOemkFVx_ZeqiPZnyjtU-1" vertex="1">
          <mxGeometry x="1630" y="447" width="330" height="30" as="geometry" />
        </mxCell>
        <mxCell id="HOemkFVx_ZeqiPZnyjtU-214" value="Review_Images" style="swimlane;fontStyle=0;childLayout=stackLayout;horizontal=1;startSize=30;horizontalStack=0;resizeParent=1;resizeParentMax=0;resizeLast=0;collapsible=1;marginBottom=0;whiteSpace=wrap;html=1;fillColor=#dae8fc;strokeColor=#6c8ebf;fontSize=16;swimlaneLine=0;" parent="HOemkFVx_ZeqiPZnyjtU-1" vertex="1">
          <mxGeometry x="314" y="282" width="200" height="120" as="geometry" />
        </mxCell>
        <mxCell id="HOemkFVx_ZeqiPZnyjtU-215" value="review_image_ID (P key)" style="text;strokeColor=#666666;fillColor=#f5f5f5;align=left;verticalAlign=middle;spacingLeft=4;spacingRight=4;overflow=hidden;points=[[0,0.5],[1,0.5]];portConstraint=eastwest;rotatable=0;whiteSpace=wrap;html=1;fontStyle=1;horizontal=1;fontColor=#333333;swimlaneLine=0;" parent="HOemkFVx_ZeqiPZnyjtU-214" vertex="1">
          <mxGeometry y="30" width="200" height="30" as="geometry" />
        </mxCell>
        <mxCell id="HOemkFVx_ZeqiPZnyjtU-216" value="image_path" style="text;strokeColor=#666666;fillColor=#f5f5f5;align=left;verticalAlign=middle;spacingLeft=4;spacingRight=4;overflow=hidden;points=[[0,0.5],[1,0.5]];portConstraint=eastwest;rotatable=0;whiteSpace=wrap;html=1;fontColor=#333333;swimlaneLine=0;" parent="HOemkFVx_ZeqiPZnyjtU-214" vertex="1">
          <mxGeometry y="60" width="200" height="30" as="geometry" />
        </mxCell>
        <mxCell id="HOemkFVx_ZeqiPZnyjtU-217" value="review_ID&amp;nbsp;&amp;nbsp;(F key)" style="text;strokeColor=#666666;fillColor=#f5f5f5;align=left;verticalAlign=middle;spacingLeft=4;spacingRight=4;overflow=hidden;points=[[0,0.5],[1,0.5]];portConstraint=eastwest;rotatable=0;whiteSpace=wrap;html=1;fontColor=#333333;fontStyle=6;swimlaneLine=0;" parent="HOemkFVx_ZeqiPZnyjtU-214" vertex="1">
          <mxGeometry y="90" width="200" height="30" as="geometry" />
        </mxCell>
        <mxCell id="HOemkFVx_ZeqiPZnyjtU-218" style="edgeStyle=orthogonalEdgeStyle;rounded=0;orthogonalLoop=1;jettySize=auto;html=1;" parent="HOemkFVx_ZeqiPZnyjtU-1" source="HOemkFVx_ZeqiPZnyjtU-221" target="HOemkFVx_ZeqiPZnyjtU-15" edge="1">
          <mxGeometry relative="1" as="geometry">
            <Array as="points">
              <mxPoint x="1520" y="185" />
            </Array>
          </mxGeometry>
        </mxCell>
        <mxCell id="HOemkFVx_ZeqiPZnyjtU-219" style="edgeStyle=orthogonalEdgeStyle;rounded=0;orthogonalLoop=1;jettySize=auto;html=1;" parent="HOemkFVx_ZeqiPZnyjtU-1" source="HOemkFVx_ZeqiPZnyjtU-221" target="HOemkFVx_ZeqiPZnyjtU-32" edge="1">
          <mxGeometry relative="1" as="geometry" />
        </mxCell>
        <mxCell id="HOemkFVx_ZeqiPZnyjtU-220" style="edgeStyle=orthogonalEdgeStyle;rounded=0;orthogonalLoop=1;jettySize=auto;html=1;" parent="HOemkFVx_ZeqiPZnyjtU-1" source="HOemkFVx_ZeqiPZnyjtU-221" target="HOemkFVx_ZeqiPZnyjtU-257" edge="1">
          <mxGeometry relative="1" as="geometry" />
        </mxCell>
        <mxCell id="HOemkFVx_ZeqiPZnyjtU-221" value="Accounts" style="swimlane;fontStyle=0;childLayout=stackLayout;horizontal=1;startSize=30;horizontalStack=0;resizeParent=1;resizeParentMax=0;resizeLast=0;collapsible=1;marginBottom=0;whiteSpace=wrap;html=1;fillColor=#dae8fc;strokeColor=#6c8ebf;fontSize=16;swimlaneLine=0;" parent="HOemkFVx_ZeqiPZnyjtU-1" vertex="1">
          <mxGeometry x="1439" y="-290" width="215" height="440" as="geometry">
            <mxRectangle x="1439" y="-130" width="110" height="30" as="alternateBounds" />
          </mxGeometry>
        </mxCell>
        <mxCell id="HOemkFVx_ZeqiPZnyjtU-222" value="account_ID (P key)" style="text;strokeColor=#666666;fillColor=#f5f5f5;align=left;verticalAlign=middle;spacingLeft=4;spacingRight=4;overflow=hidden;points=[[0,0.5],[1,0.5]];portConstraint=eastwest;rotatable=0;whiteSpace=wrap;html=1;fontStyle=1;horizontal=1;fontColor=#333333;swimlaneLine=0;" parent="HOemkFVx_ZeqiPZnyjtU-221" vertex="1">
          <mxGeometry y="30" width="215" height="30" as="geometry" />
        </mxCell>
        <mxCell id="HOemkFVx_ZeqiPZnyjtU-223" value="phone (unique)" style="text;strokeColor=#b85450;fillColor=#f8cecc;align=left;verticalAlign=middle;spacingLeft=4;spacingRight=4;overflow=hidden;points=[[0,0.5],[1,0.5]];portConstraint=eastwest;rotatable=0;whiteSpace=wrap;html=1;swimlaneLine=0;" parent="HOemkFVx_ZeqiPZnyjtU-221" vertex="1">
          <mxGeometry y="60" width="215" height="30" as="geometry" />
        </mxCell>
        <mxCell id="HOemkFVx_ZeqiPZnyjtU-224" value="phoneHash" style="text;strokeColor=#b85450;fillColor=#f8cecc;align=left;verticalAlign=middle;spacingLeft=4;spacingRight=4;overflow=hidden;points=[[0,0.5],[1,0.5]];portConstraint=eastwest;rotatable=0;whiteSpace=wrap;html=1;swimlaneLine=0;" parent="HOemkFVx_ZeqiPZnyjtU-221" vertex="1">
          <mxGeometry y="90" width="215" height="30" as="geometry" />
        </mxCell>
        <mxCell id="HOemkFVx_ZeqiPZnyjtU-225" value="bank_number" style="text;strokeColor=#b85450;fillColor=#f8cecc;align=left;verticalAlign=middle;spacingLeft=4;spacingRight=4;overflow=hidden;points=[[0,0.5],[1,0.5]];portConstraint=eastwest;rotatable=0;whiteSpace=wrap;html=1;swimlaneLine=0;" parent="HOemkFVx_ZeqiPZnyjtU-221" vertex="1">
          <mxGeometry y="120" width="215" height="30" as="geometry" />
        </mxCell>
        <mxCell id="HOemkFVx_ZeqiPZnyjtU-226" value="bank_name" style="text;strokeColor=#b85450;fillColor=#f8cecc;align=left;verticalAlign=middle;spacingLeft=4;spacingRight=4;overflow=hidden;points=[[0,0.5],[1,0.5]];portConstraint=eastwest;rotatable=0;whiteSpace=wrap;html=1;swimlaneLine=0;" parent="HOemkFVx_ZeqiPZnyjtU-221" vertex="1">
          <mxGeometry y="150" width="215" height="30" as="geometry" />
        </mxCell>
        <mxCell id="HOemkFVx_ZeqiPZnyjtU-227" value="password" style="text;strokeColor=#d6b656;fillColor=#fff2cc;align=left;verticalAlign=middle;spacingLeft=4;spacingRight=4;overflow=hidden;points=[[0,0.5],[1,0.5]];portConstraint=eastwest;rotatable=0;whiteSpace=wrap;html=1;swimlaneLine=0;" parent="HOemkFVx_ZeqiPZnyjtU-221" vertex="1">
          <mxGeometry y="180" width="215" height="30" as="geometry" />
        </mxCell>
        <mxCell id="HOemkFVx_ZeqiPZnyjtU-228" value="role (user, seller, addmin)" style="text;strokeColor=#666666;fillColor=#f5f5f5;align=left;verticalAlign=middle;spacingLeft=4;spacingRight=4;overflow=hidden;points=[[0,0.5],[1,0.5]];portConstraint=eastwest;rotatable=0;whiteSpace=wrap;html=1;fontColor=#333333;swimlaneLine=0;" parent="HOemkFVx_ZeqiPZnyjtU-221" vertex="1">
          <mxGeometry y="210" width="215" height="40" as="geometry" />
        </mxCell>
        <mxCell id="HOemkFVx_ZeqiPZnyjtU-229" value="status (active, inactive, locked&lt;span style=&quot;background-color: transparent; color: light-dark(rgb(51, 51, 51), rgb(193, 193, 193));&quot;&gt;)&lt;/span&gt;" style="text;strokeColor=#666666;fillColor=#f5f5f5;align=left;verticalAlign=middle;spacingLeft=4;spacingRight=4;overflow=hidden;points=[[0,0.5],[1,0.5]];portConstraint=eastwest;rotatable=0;whiteSpace=wrap;html=1;fontColor=#333333;swimlaneLine=0;" parent="HOemkFVx_ZeqiPZnyjtU-221" vertex="1">
          <mxGeometry y="250" width="215" height="40" as="geometry" />
        </mxCell>
        <mxCell id="HOemkFVx_ZeqiPZnyjtU-230" value="coin" style="text;strokeColor=#666666;fillColor=#f5f5f5;align=left;verticalAlign=middle;spacingLeft=4;spacingRight=4;overflow=hidden;points=[[0,0.5],[1,0.5]];portConstraint=eastwest;rotatable=0;whiteSpace=wrap;html=1;fontColor=#333333;swimlaneLine=0;" parent="HOemkFVx_ZeqiPZnyjtU-221" vertex="1">
          <mxGeometry y="290" width="215" height="30" as="geometry" />
        </mxCell>
        <mxCell id="HOemkFVx_ZeqiPZnyjtU-231" value="create_at" style="text;strokeColor=#666666;fillColor=#f5f5f5;align=left;verticalAlign=middle;spacingLeft=4;spacingRight=4;overflow=hidden;points=[[0,0.5],[1,0.5]];portConstraint=eastwest;rotatable=0;whiteSpace=wrap;html=1;fontColor=#333333;swimlaneLine=0;" parent="HOemkFVx_ZeqiPZnyjtU-221" vertex="1">
          <mxGeometry y="320" width="215" height="30" as="geometry" />
        </mxCell>
        <mxCell id="HOemkFVx_ZeqiPZnyjtU-232" value="device_token" style="text;strokeColor=#d6b656;fillColor=#fff2cc;align=left;verticalAlign=middle;spacingLeft=4;spacingRight=4;overflow=hidden;points=[[0,0.5],[1,0.5]];portConstraint=eastwest;rotatable=0;whiteSpace=wrap;html=1;swimlaneLine=0;" parent="HOemkFVx_ZeqiPZnyjtU-221" vertex="1">
          <mxGeometry y="350" width="215" height="30" as="geometry" />
        </mxCell>
        <mxCell id="HOemkFVx_ZeqiPZnyjtU-233" value="access_token" style="text;strokeColor=#d6b656;fillColor=#fff2cc;align=left;verticalAlign=middle;spacingLeft=4;spacingRight=4;overflow=hidden;points=[[0,0.5],[1,0.5]];portConstraint=eastwest;rotatable=0;whiteSpace=wrap;html=1;swimlaneLine=0;" parent="HOemkFVx_ZeqiPZnyjtU-221" vertex="1">
          <mxGeometry y="380" width="215" height="30" as="geometry" />
        </mxCell>
        <mxCell id="HOemkFVx_ZeqiPZnyjtU-234" value="refresh_token" style="text;strokeColor=#d6b656;fillColor=#fff2cc;align=left;verticalAlign=middle;spacingLeft=4;spacingRight=4;overflow=hidden;points=[[0,0.5],[1,0.5]];portConstraint=eastwest;rotatable=0;whiteSpace=wrap;html=1;swimlaneLine=0;" parent="HOemkFVx_ZeqiPZnyjtU-221" vertex="1">
          <mxGeometry y="410" width="215" height="30" as="geometry" />
        </mxCell>
        <mxCell id="HOemkFVx_ZeqiPZnyjtU-235" value="Messages" style="swimlane;fontStyle=0;childLayout=stackLayout;horizontal=1;startSize=30;horizontalStack=0;resizeParent=1;resizeParentMax=0;resizeLast=0;collapsible=1;marginBottom=0;whiteSpace=wrap;html=1;fillColor=#dae8fc;strokeColor=#6c8ebf;fontSize=16;swimlaneLine=0;" parent="HOemkFVx_ZeqiPZnyjtU-1" vertex="1">
          <mxGeometry x="1161.5" y="-260" width="177" height="210" as="geometry" />
        </mxCell>
        <mxCell id="HOemkFVx_ZeqiPZnyjtU-236" value="message_id (P key)" style="text;strokeColor=#666666;fillColor=#f5f5f5;align=left;verticalAlign=middle;spacingLeft=4;spacingRight=4;overflow=hidden;points=[[0,0.5],[1,0.5]];portConstraint=eastwest;rotatable=0;whiteSpace=wrap;html=1;fontStyle=1;horizontal=1;fontColor=#333333;swimlaneLine=0;" parent="HOemkFVx_ZeqiPZnyjtU-235" vertex="1">
          <mxGeometry y="30" width="177" height="30" as="geometry" />
        </mxCell>
        <mxCell id="HOemkFVx_ZeqiPZnyjtU-237" value="content" style="text;strokeColor=#d6b656;fillColor=#fff2cc;align=left;verticalAlign=middle;spacingLeft=4;spacingRight=4;overflow=hidden;points=[[0,0.5],[1,0.5]];portConstraint=eastwest;rotatable=0;whiteSpace=wrap;html=1;swimlaneLine=0;" parent="HOemkFVx_ZeqiPZnyjtU-235" vertex="1">
          <mxGeometry y="60" width="177" height="30" as="geometry" />
        </mxCell>
        <mxCell id="HOemkFVx_ZeqiPZnyjtU-238" value="code" style="text;strokeColor=#d6b656;fillColor=#fff2cc;align=left;verticalAlign=middle;spacingLeft=4;spacingRight=4;overflow=hidden;points=[[0,0.5],[1,0.5]];portConstraint=eastwest;rotatable=0;whiteSpace=wrap;html=1;swimlaneLine=0;" parent="HOemkFVx_ZeqiPZnyjtU-235" vertex="1">
          <mxGeometry y="90" width="177" height="30" as="geometry" />
        </mxCell>
        <mxCell id="HOemkFVx_ZeqiPZnyjtU-239" value="created_at" style="text;strokeColor=#666666;fillColor=#f5f5f5;align=left;verticalAlign=middle;spacingLeft=4;spacingRight=4;overflow=hidden;points=[[0,0.5],[1,0.5]];portConstraint=eastwest;rotatable=0;whiteSpace=wrap;html=1;fontColor=#333333;swimlaneLine=0;" parent="HOemkFVx_ZeqiPZnyjtU-235" vertex="1">
          <mxGeometry y="120" width="177" height="30" as="geometry" />
        </mxCell>
        <mxCell id="HOemkFVx_ZeqiPZnyjtU-240" value="deleted_at" style="text;strokeColor=#666666;fillColor=#f5f5f5;align=left;verticalAlign=middle;spacingLeft=4;spacingRight=4;overflow=hidden;points=[[0,0.5],[1,0.5]];portConstraint=eastwest;rotatable=0;whiteSpace=wrap;html=1;fontColor=#333333;swimlaneLine=0;" parent="HOemkFVx_ZeqiPZnyjtU-235" vertex="1">
          <mxGeometry y="150" width="177" height="30" as="geometry" />
        </mxCell>
        <mxCell id="HOemkFVx_ZeqiPZnyjtU-241" value="&lt;i&gt;account_ID (F key)&lt;/i&gt;" style="text;strokeColor=#666666;fillColor=#f5f5f5;align=left;verticalAlign=middle;spacingLeft=4;spacingRight=4;overflow=hidden;points=[[0,0.5],[1,0.5]];portConstraint=eastwest;rotatable=0;whiteSpace=wrap;html=1;fontColor=#333333;swimlaneLine=0;" parent="HOemkFVx_ZeqiPZnyjtU-235" vertex="1">
          <mxGeometry y="180" width="177" height="30" as="geometry" />
        </mxCell>
        <mxCell id="HOemkFVx_ZeqiPZnyjtU-242" value="" style="group" parent="HOemkFVx_ZeqiPZnyjtU-1" vertex="1" connectable="0">
          <mxGeometry x="1960" y="-410" width="120" height="70" as="geometry" />
        </mxCell>
        <mxCell id="HOemkFVx_ZeqiPZnyjtU-243" value="Mã hóa 1 chiều" style="rounded=0;whiteSpace=wrap;html=1;fillColor=#fff2cc;strokeColor=#d6b656;" parent="HOemkFVx_ZeqiPZnyjtU-242" vertex="1">
          <mxGeometry width="120" height="35" as="geometry" />
        </mxCell>
        <mxCell id="HOemkFVx_ZeqiPZnyjtU-244" value="Mã hóa 2 chiều" style="rounded=0;whiteSpace=wrap;html=1;fillColor=#f8cecc;strokeColor=#b85450;" parent="HOemkFVx_ZeqiPZnyjtU-242" vertex="1">
          <mxGeometry y="35" width="120" height="35" as="geometry" />
        </mxCell>
        <mxCell id="HOemkFVx_ZeqiPZnyjtU-245" style="edgeStyle=orthogonalEdgeStyle;rounded=0;orthogonalLoop=1;jettySize=auto;html=1;" parent="HOemkFVx_ZeqiPZnyjtU-1" source="HOemkFVx_ZeqiPZnyjtU-223" target="HOemkFVx_ZeqiPZnyjtU-241" edge="1">
          <mxGeometry relative="1" as="geometry">
            <mxPoint x="1360" y="-100" as="targetPoint" />
          </mxGeometry>
        </mxCell>
        <mxCell id="HOemkFVx_ZeqiPZnyjtU-251" value="Payment_History" style="swimlane;fontStyle=0;childLayout=stackLayout;horizontal=1;startSize=30;horizontalStack=0;resizeParent=1;resizeParentMax=0;resizeLast=0;collapsible=1;marginBottom=0;whiteSpace=wrap;html=1;fillColor=#dae8fc;strokeColor=#6c8ebf;fontSize=16;swimlaneLine=0;rounded=0;shadow=0;" parent="HOemkFVx_ZeqiPZnyjtU-1" vertex="1" collapsed="1">
          <mxGeometry x="1640" y="-410" width="160" height="30" as="geometry">
            <mxRectangle x="1640" y="-410" width="190" height="220" as="alternateBounds" />
          </mxGeometry>
        </mxCell>
        <mxCell id="HOemkFVx_ZeqiPZnyjtU-252" value="payment_history_ID (P key)" style="text;strokeColor=#666666;fillColor=#f5f5f5;align=left;verticalAlign=middle;spacingLeft=4;spacingRight=4;overflow=hidden;points=[[0,0.5],[1,0.5]];portConstraint=eastwest;rotatable=0;whiteSpace=wrap;html=1;fontStyle=1;horizontal=1;fontColor=#333333;swimlaneLine=0;" parent="HOemkFVx_ZeqiPZnyjtU-251" vertex="1">
          <mxGeometry y="30" width="190" height="30" as="geometry" />
        </mxCell>
        <mxCell id="HOemkFVx_ZeqiPZnyjtU-253" value="amount" style="text;strokeColor=#666666;fillColor=#f5f5f5;align=left;verticalAlign=middle;spacingLeft=4;spacingRight=4;overflow=hidden;points=[[0,0.5],[1,0.5]];portConstraint=eastwest;rotatable=0;whiteSpace=wrap;html=1;fontColor=#333333;swimlaneLine=0;" parent="HOemkFVx_ZeqiPZnyjtU-251" vertex="1">
          <mxGeometry y="60" width="190" height="30" as="geometry" />
        </mxCell>
        <mxCell id="HOemkFVx_ZeqiPZnyjtU-254" value="status (request, sent, completed)" style="text;strokeColor=#666666;fillColor=#f5f5f5;align=left;verticalAlign=middle;spacingLeft=4;spacingRight=4;overflow=hidden;points=[[0,0.5],[1,0.5]];portConstraint=eastwest;rotatable=0;whiteSpace=wrap;html=1;fontColor=#333333;swimlaneLine=0;" parent="HOemkFVx_ZeqiPZnyjtU-251" vertex="1">
          <mxGeometry y="90" width="190" height="30" as="geometry" />
        </mxCell>
        <mxCell id="HOemkFVx_ZeqiPZnyjtU-255" value="content" style="text;strokeColor=#666666;fillColor=#f5f5f5;align=left;verticalAlign=middle;spacingLeft=4;spacingRight=4;overflow=hidden;points=[[0,0.5],[1,0.5]];portConstraint=eastwest;rotatable=0;whiteSpace=wrap;html=1;fontColor=#333333;swimlaneLine=0;" parent="HOemkFVx_ZeqiPZnyjtU-251" vertex="1">
          <mxGeometry y="120" width="190" height="30" as="geometry" />
        </mxCell>
        <mxCell id="HOemkFVx_ZeqiPZnyjtU-256" value="created_at" style="text;strokeColor=#666666;fillColor=#f5f5f5;align=left;verticalAlign=middle;spacingLeft=4;spacingRight=4;overflow=hidden;points=[[0,0.5],[1,0.5]];portConstraint=eastwest;rotatable=0;whiteSpace=wrap;html=1;fontColor=#333333;swimlaneLine=0;" parent="HOemkFVx_ZeqiPZnyjtU-251" vertex="1">
          <mxGeometry y="150" width="190" height="40" as="geometry" />
        </mxCell>
        <mxCell id="HOemkFVx_ZeqiPZnyjtU-257" value="account_ID (F key)" style="text;strokeColor=#666666;fillColor=#f5f5f5;align=left;verticalAlign=middle;spacingLeft=4;spacingRight=4;overflow=hidden;points=[[0,0.5],[1,0.5]];portConstraint=eastwest;rotatable=0;whiteSpace=wrap;html=1;fontColor=#333333;fontStyle=6;swimlaneLine=0;" parent="HOemkFVx_ZeqiPZnyjtU-251" vertex="1">
          <mxGeometry y="190" width="190" height="30" as="geometry" />
        </mxCell>
        <mxCell id="HOemkFVx_ZeqiPZnyjtU-258" value="Người mua đã thanh toán (true, false)" style="text;html=1;align=center;verticalAlign=middle;resizable=0;points=[];autosize=1;strokeColor=none;fillColor=none;" parent="HOemkFVx_ZeqiPZnyjtU-1" vertex="1">
          <mxGeometry x="1708" y="477" width="220" height="30" as="geometry" />
        </mxCell>
        <mxCell id="HOemkFVx_ZeqiPZnyjtU-259" value="Order_Payments" style="swimlane;fontStyle=0;childLayout=stackLayout;horizontal=1;startSize=30;horizontalStack=0;resizeParent=1;resizeParentMax=0;resizeLast=0;collapsible=1;marginBottom=0;whiteSpace=wrap;html=1;fillColor=#dae8fc;strokeColor=#6c8ebf;fontSize=16;swimlaneLine=0;" parent="HOemkFVx_ZeqiPZnyjtU-1" vertex="1">
          <mxGeometry x="2270" y="480" width="170" height="180" as="geometry" />
        </mxCell>
        <mxCell id="HOemkFVx_ZeqiPZnyjtU-260" value="order_payment_ID (P key)" style="text;strokeColor=#666666;fillColor=#f5f5f5;align=left;verticalAlign=middle;spacingLeft=4;spacingRight=4;overflow=hidden;points=[[0,0.5],[1,0.5]];portConstraint=eastwest;rotatable=0;whiteSpace=wrap;html=1;fontStyle=1;horizontal=1;fontColor=#333333;swimlaneLine=0;" parent="HOemkFVx_ZeqiPZnyjtU-259" vertex="1">
          <mxGeometry y="30" width="170" height="30" as="geometry" />
        </mxCell>
        <mxCell id="HOemkFVx_ZeqiPZnyjtU-261" value="&lt;span style=&quot;&quot;&gt;vnp_txnref (F key)&lt;/span&gt;" style="text;strokeColor=#666666;fillColor=#f5f5f5;align=left;verticalAlign=middle;spacingLeft=4;spacingRight=4;overflow=hidden;points=[[0,0.5],[1,0.5]];portConstraint=eastwest;rotatable=0;whiteSpace=wrap;html=1;fontColor=#333333;swimlaneLine=0;fontStyle=6" parent="HOemkFVx_ZeqiPZnyjtU-259" vertex="1">
          <mxGeometry y="60" width="170" height="30" as="geometry" />
        </mxCell>
        <mxCell id="HOemkFVx_ZeqiPZnyjtU-262" value="vnp_code" style="text;strokeColor=#666666;fillColor=#f5f5f5;align=left;verticalAlign=middle;spacingLeft=4;spacingRight=4;overflow=hidden;points=[[0,0.5],[1,0.5]];portConstraint=eastwest;rotatable=0;whiteSpace=wrap;html=1;fontColor=#333333;swimlaneLine=0;" parent="HOemkFVx_ZeqiPZnyjtU-259" vertex="1">
          <mxGeometry y="90" width="170" height="30" as="geometry" />
        </mxCell>
        <mxCell id="HOemkFVx_ZeqiPZnyjtU-263" value="vnp_message" style="text;strokeColor=#666666;fillColor=#f5f5f5;align=left;verticalAlign=middle;spacingLeft=4;spacingRight=4;overflow=hidden;points=[[0,0.5],[1,0.5]];portConstraint=eastwest;rotatable=0;whiteSpace=wrap;html=1;fontColor=#333333;swimlaneLine=0;" parent="HOemkFVx_ZeqiPZnyjtU-259" vertex="1">
          <mxGeometry y="120" width="170" height="30" as="geometry" />
        </mxCell>
        <mxCell id="HOemkFVx_ZeqiPZnyjtU-264" value="vnp_json" style="text;strokeColor=#666666;fillColor=#f5f5f5;align=left;verticalAlign=middle;spacingLeft=4;spacingRight=4;overflow=hidden;points=[[0,0.5],[1,0.5]];portConstraint=eastwest;rotatable=0;whiteSpace=wrap;html=1;fontColor=#333333;swimlaneLine=0;" parent="HOemkFVx_ZeqiPZnyjtU-259" vertex="1">
          <mxGeometry y="150" width="170" height="30" as="geometry" />
        </mxCell>
        <mxCell id="z1mKPCpYzbw2HojQKFsz-2" value="Phí vận chuyển" style="text;html=1;align=center;verticalAlign=middle;resizable=0;points=[];autosize=1;strokeColor=none;fillColor=none;" parent="HOemkFVx_ZeqiPZnyjtU-1" vertex="1">
          <mxGeometry x="1714.5" y="350" width="110" height="30" as="geometry" />
        </mxCell>
        <mxCell id="z1mKPCpYzbw2HojQKFsz-4" value="Mã đơn hàng của Giao hàng nhanh" style="text;html=1;align=center;verticalAlign=middle;resizable=0;points=[];autosize=1;strokeColor=none;fillColor=none;" parent="HOemkFVx_ZeqiPZnyjtU-1" vertex="1">
          <mxGeometry x="1708" y="630" width="210" height="30" as="geometry" />
        </mxCell>
      </root>
    </mxGraphModel>
  </diagram>
</mxfile>
